<svg width="80" height="62" viewBox="0 0 80 62" fill="none" xmlns="http://www.w3.org/2000/svg">
<path d="M73.4254 29.367C73.4262 28.643 73.3898 27.9282 73.3344 27.2188L75.2409 26.4866L74.4903 22.226L72.454 22.1824C72.0688 20.786 71.5738 19.4357 70.9787 18.1394L72.5135 16.8071L70.3428 13.0588L68.4092 13.7123C67.5718 12.5414 66.646 11.4379 65.6359 10.4158L66.6215 8.63891L63.2928 5.85504L61.703 7.12473C60.5203 6.31068 59.2712 5.58617 57.9624 4.96454L58.2763 2.96752L54.1908 1.48386L53.1378 3.21048C51.7574 2.8531 50.3332 2.60398 48.8765 2.46647L48.4834 0.476888L44.1342 0.472271L43.737 2.46108C42.2798 2.59577 40.8553 2.84155 39.4742 3.19637L38.4251 1.46744L34.3365 2.94263L34.6463 4.94017C33.3361 5.55923 32.0855 6.28118 30.901 7.09266L29.3137 5.81963L25.9791 8.59658L26.9612 10.3755C25.9489 11.3953 25.0208 12.497 24.1809 13.6661L22.2488 13.0088L20.0701 16.7527L21.6021 18.0883C21.0041 19.3834 20.5063 20.7326 20.1183 22.1283L18.082 22.1678L17.3223 26.4269L19.2273 27.1632C19.1703 27.8725 19.1324 28.5873 19.1316 29.3113C19.1308 30.035 19.1672 30.7501 19.2227 31.4594L17.3161 32.1916L18.0668 36.4522L20.1031 36.4958C20.4882 37.8923 20.9832 39.2428 21.5783 40.5389L20.0435 41.8712L22.2142 45.6197L24.1476 44.9662C24.9849 46.1372 25.9108 47.2406 26.9209 48.2627L25.9353 50.0396L29.264 52.8235L30.8538 51.5538C32.0365 52.3676 33.2858 53.0923 34.5947 53.714L34.2807 55.711L38.3663 57.1947L39.4193 55.4678C40.7996 55.8252 42.2235 56.0743 43.6805 56.2118L44.0736 58.2016L48.4228 58.2062L48.8201 56.2174C50.2773 56.0827 51.7017 55.837 53.0828 55.4824L54.1322 57.2113L58.2208 55.7361L57.911 53.7383C59.2212 53.1193 60.4718 52.3973 61.6563 51.5859L63.2435 52.8589L66.5782 50.0819L65.5961 48.303C66.6084 47.2832 67.5365 46.1815 68.3764 45.0124L70.3085 45.6697L72.487 41.9258L70.955 40.5902C71.5529 39.2951 72.0508 37.9459 72.4387 36.5502L74.4751 36.511L75.2347 32.2519L73.3297 31.5159C73.3867 30.8055 73.4247 30.0907 73.4254 29.367Z" fill="#2563EB"/>
<path d="M46.2783 52.5715C59.1798 52.5715 69.6385 42.1698 69.6385 29.3385C69.6385 16.5072 59.1798 6.10544 46.2783 6.10544C33.3769 6.10544 22.9181 16.5072 22.9181 29.3385C22.9181 42.1698 33.3769 52.5715 46.2783 52.5715Z" fill="white"/>
<path d="M60.8071 43.7892C68.8316 35.8084 68.8316 22.8689 60.8071 14.8881C52.7826 6.90729 39.7724 6.90729 31.7479 14.8881C23.7234 22.8689 23.7234 35.8084 31.7479 43.7892C39.7724 51.77 52.7826 51.77 60.8071 43.7892Z" fill="#1D0900"/>
<path d="M63.7107 33.5572C66.0567 23.9839 60.1553 14.3317 50.5296 11.9984C40.9038 9.66519 31.1988 15.5345 28.8528 25.1078C26.5068 34.6812 32.4082 44.3334 42.0339 46.6667C51.6597 48.9999 61.3647 43.1306 63.7107 33.5572Z" fill="white"/>
<path d="M78.2961 49.233L62.4688 49.2495L62.4587 39.6851L77.1969 39.6697C78.2388 39.6687 79.0841 40.5076 79.0852 41.5438L79.0924 48.4393C79.0929 48.8772 78.7364 49.2325 78.2961 49.233Z" fill="#1D0900"/>
<path d="M63.2093 39.687L62.4571 39.6878L62.4667 49.2521L63.2189 49.2514L63.2093 39.687Z" fill="#D87D21"/>
<path d="M78.2961 49.233L62.4688 49.2495L62.4665 47.1363L79.0909 47.1188L79.0922 48.439C79.093 48.8772 78.7364 49.2325 78.2961 49.233Z" fill="#525563"/>
<path d="M79.0947 47.1142L62.4703 47.1324L62.4711 47.8569L79.0955 47.8387L79.0947 47.1142Z" fill="#4B474F"/>
<path d="M80 46.268L79.0907 46.7006L79.0873 43.5729L79.9977 44.0034L80 46.268Z" fill="#F05879"/>
<path d="M76.6967 38.0356L74.5747 38.0377L74.5763 39.6768L76.6983 39.6747L76.6967 38.0356Z" fill="#504943"/>
<path d="M76.6977 39.1455L74.5757 39.1476L74.5763 39.6768L76.6983 39.6747L76.6977 39.1455Z" fill="#463F43"/>
<path d="M77.3506 37.2894L73.9192 37.2928L73.9205 38.5879L77.3519 38.5845L77.3506 37.2894Z" fill="#63594F"/>
<path d="M63.7519 38.0449L70.0278 38.0384C70.3239 38.0382 70.5832 38.2365 70.659 38.5213L70.966 39.6766L62.8168 39.685L63.1215 38.529C63.1968 38.2439 63.4555 38.0451 63.7519 38.0449Z" fill="#63594F"/>
<path d="M73.233 34.3526L71.5361 34.3545L71.542 39.6729L73.2389 39.671L73.233 34.3526Z" fill="#FEA177"/>
<path d="M44.298 36.3329L41.8288 26.0281L20.355 3.69917L22.0385 1.70318L50.6858 24.8939L51.8585 34.2561L44.298 36.3329Z" fill="#1D0900"/>
<path d="M45.2741 35.1455L42.9847 25.5909L29.5324 11.6033C29.212 11.2703 29.195 10.7508 29.4929 10.3978C29.812 10.0194 30.3777 9.96575 30.7629 10.2777L48.7653 24.8513L49.5306 30.9616L45.2741 35.1455Z" fill="white"/>
<path d="M48.8453 30.7247L48.1519 25.1888L30.352 10.7791C30.2932 10.7314 30.231 10.7214 30.1895 10.7217C30.1128 10.7217 30.0406 10.755 29.9913 10.8133C29.9067 10.9136 29.9116 11.0608 30.0027 11.1555L43.5767 25.2701L45.6391 33.8765L48.8453 30.7247Z" fill="#2563EB"/>
<path d="M43.0672 24.5703C43.068 25.3294 43.6874 25.9441 44.4509 25.9433C45.2142 25.9426 45.8323 25.3266 45.8315 24.5675C45.8307 23.8083 45.2114 23.1936 44.4478 23.1944C43.6843 23.1951 43.0665 23.8111 43.0672 24.5703Z" fill="#1D0900"/>
<path d="M46.8128 31.0984L44.7692 31.4986L46.2592 39.0248L48.3028 38.6246L46.8128 31.0984Z" fill="#FEA177"/>
<path d="M44.9799 24.47L43.9391 24.6738L45.2708 31.4003L46.3116 31.1965L44.9799 24.47Z" fill="#1D0900"/>
<path d="M45.2666 25.9198C45.0282 26.0627 44.7496 26.1468 44.4509 26.1471C44.3748 26.1471 44.3003 26.1402 44.227 26.1299L43.9378 24.6691L44.9787 24.4651L45.2666 25.9198Z" fill="#1D0900"/>
<path d="M71.9354 34.3571L71.9325 31.7425L73.4609 30.7189L73.9157 31.3839L72.7933 32.1456L72.7956 34.3561L71.9354 34.3571Z" fill="#FF8C58"/>
<path d="M41.439 51.2156L62.4709 51.1935L62.4487 30.2926C62.4479 29.6699 61.94 29.1658 61.3139 29.1663L50.1012 29.1781C49.6614 29.1786 49.25 29.3941 49.0008 29.7546L41.6637 40.3677C41.5102 40.5899 41.4282 40.8531 41.4284 41.1227L41.439 51.2156Z" fill="#2563EB"/>
<path d="M55.755 42.6664L61.418 42.6605C61.581 42.6602 61.7128 42.5289 61.7125 42.3667L61.6994 29.9749C61.6991 29.8127 61.5671 29.6816 61.404 29.6819L55.7411 29.6878C55.578 29.688 55.4462 29.8194 55.4465 29.9815L55.4596 42.3734C55.4599 42.5353 55.592 42.6664 55.755 42.6664Z" fill="#1D0900"/>
<path d="M56.0759 41.9982L61.0955 41.993C61.2585 41.9928 61.3904 41.8614 61.3901 41.6993L61.3785 30.6426C61.3782 30.4804 61.2462 30.3493 61.0831 30.3496L56.0635 30.3547C55.9005 30.355 55.7687 30.4863 55.7689 30.6485L55.7805 41.7052C55.7808 41.8673 55.9129 41.9984 56.0759 41.9982Z" fill="#63594F"/>
<path d="M56.0759 41.9982L61.0955 41.993C61.2585 41.9928 61.3904 41.8614 61.3901 41.6993L61.3785 30.6426C61.3782 30.4804 61.2462 30.3493 61.0831 30.3496L56.0635 30.3547C55.9005 30.355 55.7687 30.4863 55.7689 30.6485L55.7805 41.7052C55.7808 41.8673 55.9129 41.9984 56.0759 41.9982Z" fill="#1D0900"/>
<path d="M60.8575 31.675L56.2978 31.68L56.3078 40.6663L60.8674 40.6613L60.8575 31.675Z" fill="white"/>
<path d="M43.4965 42.3642L54.7598 42.3524C54.9375 42.3522 55.0812 42.209 55.0809 42.0322L55.0683 29.977C55.068 29.8002 54.9238 29.6573 54.7464 29.6576L50.5636 29.6619C50.4578 29.6622 50.3587 29.714 50.2989 29.8007L43.229 40.0339C43.1921 40.0873 43.1725 40.1507 43.1725 40.2153L43.1743 42.0448C43.1749 42.2213 43.3188 42.3645 43.4965 42.3642Z" fill="#1D0900"/>
<path d="M44.1249 42.0108L54.4551 42.0001C54.6182 41.9998 54.75 41.8684 54.7497 41.7063L54.7381 30.6496C54.7379 30.4874 54.6058 30.3563 54.4428 30.3566L50.6064 30.3607C50.5094 30.3607 50.4186 30.4084 50.3637 30.488L43.8796 39.8735C43.8458 39.9225 43.8278 39.9805 43.8278 40.04L43.8296 41.7179C43.8298 41.8797 43.9622 42.0108 44.1249 42.0108Z" fill="#1D0900"/>
<path d="M45.1758 40.6813L54.0808 40.6718L54.0712 31.6855L50.2865 31.6896L45.174 39.0894L45.1758 40.6813Z" fill="white"/>
<path d="M46.4759 49.4852L54.4499 49.477C54.6202 49.4768 54.7579 49.3395 54.7576 49.1702L54.7512 42.9695C54.7509 42.8002 54.6129 42.6632 54.4427 42.6634L44.1388 42.6742C43.9685 42.6745 43.8308 42.8117 43.831 42.9811L43.8352 46.8645C43.8364 48.3135 45.0189 49.4868 46.4759 49.4852Z" fill="#1D0900"/>
<path d="M46.779 49.0392L53.9833 49.0317C54.2005 49.0315 54.3764 48.8563 54.3761 48.6402L54.3705 43.2852C54.3702 43.0692 54.194 42.8942 53.9768 42.8944L44.6052 42.9042C44.388 42.9044 44.212 43.0797 44.2123 43.2957L44.2157 46.4952C44.2172 47.9016 45.3649 49.0407 46.779 49.0392Z" fill="#1D0900"/>
<path d="M46.6382 48.0798L53.6911 48.0723C53.8146 48.0721 53.9147 47.9725 53.9147 47.8494L53.9108 44.0737C53.9108 43.9508 53.8105 43.851 53.6867 43.8513L44.9543 43.8602C44.8307 43.8605 44.7306 43.96 44.7306 44.0832L44.7329 46.1885C44.734 47.2344 45.587 48.0811 46.6382 48.0798Z" fill="white"/>
<path d="M62.4661 49.9205L41.4342 49.9414L41.4355 51.2185L62.4674 51.1976L62.4661 49.9205Z" fill="#525563"/>
<path d="M61.8055 47.3528L56.3151 47.3588L56.3166 48.735L61.807 48.729L61.8055 47.3528Z" fill="#FEA177"/>
<path d="M66.0651 51.194L44.563 51.2154L44.5643 52.5321L66.0664 52.5107L66.0651 51.194Z" fill="#44424D"/>
<path d="M68.891 52.5083L42.5289 52.5345L42.5302 53.854L68.8923 53.8278L68.891 52.5083Z" fill="#525563"/>
<path d="M68.891 52.5083L42.5289 52.5345L42.5294 52.9304L68.8915 52.9042L68.891 52.5083Z" fill="#6C6F80"/>
<path d="M40.3032 62L70.3551 61.9687C72.6172 61.9664 74.449 60.1408 74.4466 57.891C74.4443 55.6413 72.6087 53.8195 70.3466 53.8218L40.2947 53.8531C38.0327 53.8554 36.2009 55.6811 36.2033 57.9308C36.2056 60.1805 38.0412 62.0023 40.3032 62Z" fill="#63594F"/>
<path d="M40.8197 61.3915L69.8374 61.3612C71.7621 61.3591 73.3204 59.806 73.3183 57.8918C73.3163 55.9777 71.7546 54.4278 69.83 54.4299L40.8122 54.4601C38.8876 54.4622 37.3293 56.0154 37.3313 57.9295C37.3334 59.8434 38.8953 61.3935 40.8197 61.3915Z" fill="#4D453D"/>
<path d="M68.8949 56.35L41.7198 56.3771L41.7217 58.3513L68.8969 58.3242L68.8949 56.35Z" fill="#413B3D"/>
<path d="M66.6544 57.899C66.6562 59.5761 68.0247 60.9343 69.711 60.9325C71.3973 60.9307 72.7629 59.5696 72.7611 57.8925C72.7593 56.2155 71.3908 54.8573 69.7045 54.859C68.0183 54.8608 66.6526 56.2219 66.6544 57.899Z" fill="#63594F"/>
<path d="M67.2331 57.8982C67.2346 59.2577 68.3439 60.3586 69.7105 60.3571C71.0774 60.3558 72.1843 59.2526 72.1828 57.8931C72.1815 56.5336 71.0723 55.433 69.7054 55.4343C68.3384 55.4358 67.2315 56.539 67.2331 57.8982Z" fill="#57514F"/>
<path d="M67.6525 57.898C67.6538 59.0268 68.575 59.9412 69.71 59.9399C70.845 59.9386 71.7644 59.0227 71.7631 57.8936C71.7618 56.7648 70.8409 55.8504 69.7056 55.8517C68.5706 55.853 67.6515 56.7689 67.6525 57.898Z" fill="#6E6257"/>
<path d="M37.9787 57.9288C37.9805 59.6059 39.349 60.9641 41.0353 60.9623C42.7216 60.9605 44.0872 59.5995 44.0854 57.9224C44.0836 56.2453 42.7151 54.8871 41.0288 54.8889C39.3423 54.8907 37.9769 56.2517 37.9787 57.9288Z" fill="#63594F"/>
<path d="M38.5571 57.9283C38.5587 59.2878 39.6676 60.3887 41.0346 60.3871C42.4015 60.3856 43.5084 59.2827 43.5068 57.9232C43.5053 56.5637 42.3961 55.4631 41.0294 55.4644C39.6625 55.4656 38.5556 56.5688 38.5571 57.9283Z" fill="#57514F"/>
<path d="M38.9768 57.9278C38.9781 59.0566 39.899 59.971 41.0343 59.9697C42.1693 59.9684 43.0887 59.0523 43.0874 57.9234C43.0861 56.7946 42.1652 55.8802 41.0299 55.8815C39.8946 55.8828 38.9755 56.7989 38.9768 57.9278Z" fill="#6E6257"/>
<path d="M68.1208 54.4361L42.1153 54.4619L42.1168 55.98L68.1224 55.9541L68.1208 54.4361Z" fill="#746E65"/>
<path d="M68.1208 54.4361L42.1153 54.4619L42.1158 54.9732L68.1213 54.9474L68.1208 54.4361Z" fill="#6A6462"/>
<path d="M65.1019 60.2463C65.1024 60.8323 65.5807 61.3069 66.1699 61.3061C66.759 61.3056 67.2363 60.8299 67.2355 60.244C67.235 59.658 66.7567 59.1836 66.1675 59.1841C65.5784 59.1849 65.1014 59.6603 65.1019 60.2463Z" fill="#413B3D"/>
<path d="M65.5283 60.2461C65.5285 60.5978 65.8156 60.8826 66.1693 60.8824C66.523 60.8821 66.8095 60.5965 66.809 60.2448C66.8088 59.8931 66.5217 59.6083 66.168 59.6086C65.8143 59.6088 65.528 59.8941 65.5283 60.2461Z" fill="#474143"/>
<path d="M60.6856 60.2508C60.6864 60.8368 61.1644 61.3114 61.7536 61.3106C62.3428 61.3101 62.82 60.8345 62.8192 60.2485C62.8187 59.6625 62.3404 59.1879 61.7513 59.1887C61.1623 59.1894 60.6851 59.6648 60.6856 60.2508Z" fill="#413B3D"/>
<path d="M61.112 60.2506C61.1122 60.6023 61.3993 60.8871 61.753 60.8869C62.1067 60.8866 62.393 60.6011 62.3927 60.2493C62.3925 59.8976 62.1054 59.6128 61.7517 59.6131C61.3981 59.6133 61.1117 59.8986 61.112 60.2506Z" fill="#474143"/>
<path d="M56.2696 60.2555C56.2701 60.8415 56.7484 61.3161 57.3376 61.3154C57.9267 61.3149 58.4039 60.8392 58.4032 60.2532C58.4027 59.6673 57.9244 59.1926 57.3352 59.1934C56.7461 59.1942 56.2688 59.6696 56.2696 60.2555Z" fill="#413B3D"/>
<path d="M56.6961 60.2551C56.6963 60.6069 56.9834 60.8916 57.3371 60.8914C57.6908 60.8911 57.9771 60.6056 57.9768 60.2538C57.9766 59.9021 57.6895 59.6173 57.3358 59.6176C56.9822 59.6178 56.6956 59.9034 56.6961 60.2551Z" fill="#474143"/>
<path d="M51.8534 60.2601C51.854 60.846 52.3322 61.3207 52.9214 61.3199C53.5106 61.3191 53.9878 60.8437 53.987 60.2577C53.9865 59.6718 53.5082 59.1974 52.9191 59.1979C52.3299 59.1987 51.8529 59.6741 51.8534 60.2601Z" fill="#413B3D"/>
<path d="M52.2798 60.2596C52.2801 60.6114 52.5672 60.8961 52.9208 60.8959C53.2745 60.8956 53.5608 60.6101 53.5606 60.2583C53.5603 59.9066 53.2732 59.6218 52.9195 59.6221C52.5659 59.6226 52.2793 59.9079 52.2798 60.2596Z" fill="#474143"/>
<path d="M47.4372 60.2648C47.4377 60.8508 47.9159 61.3254 48.5051 61.3246C49.0943 61.3241 49.5713 60.8485 49.5707 60.2625C49.5702 59.6765 49.092 59.2019 48.5028 59.2027C47.9136 59.2035 47.4366 59.6788 47.4372 60.2648Z" fill="#413B3D"/>
<path d="M47.8635 60.2641C47.8638 60.6159 48.1509 60.9009 48.5046 60.9004C48.8582 60.9001 49.1448 60.6146 49.1443 60.2629C49.144 59.9111 48.8569 59.6263 48.5033 59.6266C48.1496 59.6271 47.8633 59.9124 47.8635 60.2641Z" fill="#474143"/>
<path d="M43.0209 60.2693C43.0214 60.8553 43.4997 61.3299 44.0888 61.3292C44.678 61.3284 45.1552 60.853 45.1545 60.267C45.1539 59.6811 44.6757 59.2064 44.0865 59.2072C43.4976 59.208 43.0204 59.6834 43.0209 60.2693Z" fill="#413B3D"/>
<path d="M43.4472 60.2689C43.4475 60.6206 43.7346 60.9054 44.0883 60.9052C44.4419 60.9049 44.7283 60.6194 44.728 60.2676C44.7277 59.9159 44.4406 59.6308 44.087 59.6314C43.7333 59.6319 43.447 59.9172 43.4472 60.2689Z" fill="#474143"/>
<path d="M68.1254 58.7291L42.1198 58.755L42.1213 60.273L68.1269 60.2471L68.1254 58.7291Z" fill="#746E65"/>
<path d="M72.9367 40.1645L64.4068 40.1738L64.4123 45.1484L72.9422 45.1391L72.9367 40.1645Z" fill="#E07019"/>
<path d="M72.0889 40.87L64.9695 40.8778L64.9699 41.2193L72.0893 41.2115L72.0889 40.87Z" fill="#FEA177"/>
<path d="M72.0836 41.92L64.9642 41.9271L64.9646 42.2686L72.084 42.2615L72.0836 41.92Z" fill="#FEA177"/>
<path d="M72.0846 42.9618L64.9652 42.9689L64.9656 43.3103L72.085 43.3032L72.0846 42.9618Z" fill="#FEA177"/>
<path d="M72.0925 43.9943L64.9731 44.0021L64.9734 44.3436L72.0928 44.3358L72.0925 43.9943Z" fill="#FEA177"/>
<path d="M54.6749 28.3806L57.3553 28.3778C57.6906 28.3776 57.9628 28.6475 57.9631 28.981L57.9633 29.1701L54.0684 29.1742L54.0681 28.9851C54.0679 28.6516 54.3395 28.3809 54.6749 28.3806Z" fill="#2563EB"/>
<path d="M54.572 28.3807L57.2274 28.3778L57.0613 26.5963C57.0311 26.2726 56.7576 26.025 56.4308 26.0252L55.3639 26.0263C55.0368 26.0265 54.7641 26.2749 54.7345 26.5986L54.572 28.3807Z" fill="#2563EB"/>
<path d="M33.3143 7.13653L32.5367 8.20623L45.4425 17.4861L46.2201 16.4164L33.3143 7.13653Z" fill="#1D0900"/>
<path d="M23.1519 0.294418L22.7556 0.839564L32.6953 7.9866L33.0916 7.44146L23.1519 0.294418Z" fill="#1D0900"/>
<path d="M24.8779 0.134177L23.2303 8.67616L6.08609 28.8383L3.52766 28.0706L20.3272 0L24.8779 0.134177Z" fill="#1D0900"/>
<path d="M1.85345 26.7309L4.77276 25.9897L3.94962 27.3651L2.27263 27.4407L1.85345 26.7309Z" fill="#1D0900"/>
<path d="M13.538 7.69196L4.72966 20.8871L5.83535 21.6172L14.6436 8.42204L13.538 7.69196Z" fill="#E07019"/>
<path d="M5.04585 21.097L1.17089 26.9019L1.73437 27.2739L5.60933 21.4691L5.04585 21.097Z" fill="#1D0900"/>
<path d="M18.5457 2.96995L17.3291 2.3591L12.7313 7.23466L14.2943 10.0575L18.5457 2.96995Z" fill="#1D0900"/>
<path d="M3.67466 33.6311L2.44884 31.9053L3.76959 29.3023C3.76959 29.3023 3.38523 28.1947 3.52737 28.0703C3.66976 27.9459 5.01114 26.8555 5.01114 26.8555C5.01114 26.8555 7.87835 31.4299 14.0719 29.9665L14.9095 30.2431C14.9095 30.2431 17.3459 28.3954 17.4058 28.4551C17.4654 28.5149 17.6209 28.5629 17.6209 28.5629L13.8576 33.1437L13.5114 32.94C13.5114 32.94 9.96498 37.7873 6.77042 36.8904C3.80519 36.0584 3.67466 33.6311 3.67466 33.6311Z" fill="#1D0900"/>
<path d="M3.52766 28.0706C3.67005 27.9462 5.01146 26.856 5.01146 26.856C5.01146 26.856 7.73989 31.2041 13.6201 30.0619L14.4747 32.3932L13.8576 33.1442L13.5115 32.9405C13.5115 32.9405 13.2811 33.255 12.8862 33.7081C11.1439 33.8931 6.78312 33.8931 3.39226 30.0471L3.76991 29.303C3.76991 29.303 3.38527 28.1951 3.52766 28.0706Z" fill="#1D0900"/>
<path d="M3.52766 28.0706C3.67005 27.9462 5.01146 26.856 5.01146 26.856C5.01146 26.856 7.87867 31.4304 14.0723 29.967L14.9098 30.2436C14.9098 30.2436 17.3463 28.3959 17.4061 28.4557C17.4657 28.5154 17.6212 28.5634 17.6212 28.5634L13.8576 33.1442L13.5115 32.9405C13.5115 32.9405 7.6429 33.5126 3.77016 29.3028C3.76965 29.3028 3.38527 28.1951 3.52766 28.0706Z" fill="#1D0900"/>
<path d="M1.16623 28.0853L2.74468 31.3225L3.34753 30.1344L2.00073 27.7404L1.16623 28.0853Z" fill="#1D0900"/>
<path d="M2.3905 28.4331C2.16685 28.6725 1.87794 28.8349 1.56581 28.9047L1.16623 28.0853L2.00073 27.7404L2.3905 28.4331Z" fill="#D98622"/>
<path d="M2.81847 27.4162L2.27263 27.4407L1.85345 26.7309L2.60101 26.5411C2.75553 26.8048 2.83188 27.1089 2.81847 27.4162Z" fill="#D98622"/>
<path d="M0.13059 26.8017C-0.171738 27.3974 0.0686799 28.1243 0.667918 28.4249C1.2669 28.7256 1.99769 28.4865 2.30002 27.8905C2.60235 27.2948 2.36193 26.568 1.76269 26.2673C1.16345 25.9666 0.432917 26.206 0.13059 26.8017Z" fill="#E07019"/>
<path d="M43.4295 24.5699C43.43 25.1302 43.8874 25.5838 44.4505 25.5832C45.0139 25.5827 45.4699 25.1279 45.4694 24.5675C45.4689 24.0072 45.0115 23.5534 44.4482 23.5541C43.885 23.5549 43.4287 24.0098 43.4295 24.5699Z" fill="#1D0900"/>
<path d="M43.7545 24.5695C43.7547 24.9513 44.0663 25.2604 44.4502 25.2599C44.834 25.2594 45.1448 24.9497 45.1443 24.568C45.1438 24.1862 44.8325 23.8771 44.4486 23.8776C44.0648 23.8781 43.7539 24.1878 43.7545 24.5695Z" fill="#1D0900"/>
<path d="M43.958 24.5693C43.9583 24.8392 44.1786 25.0578 44.4499 25.0575C44.7213 25.0573 44.9411 24.8382 44.9408 24.5683C44.9406 24.2984 44.7203 24.0798 44.4489 24.08C44.1775 24.0805 43.9577 24.2994 43.958 24.5693Z" fill="#1D0900"/>
<path d="M42.7923 18.5037L46.0877 15.7773L48.9593 18.4973L48.7501 23.3267L42.7923 18.5037Z" fill="#2563EB"/>
<path d="M48.7501 23.3267L42.7923 18.5037L43.4472 18.0099L48.7986 22.2071L48.7501 23.3267Z" fill="#E07019"/>
<path d="M45.2586 18.3811C45.2591 18.838 45.6319 19.208 46.0911 19.2074C46.5505 19.2069 46.9225 18.8362 46.9219 18.3795C46.9214 17.9226 46.5487 17.5527 46.0895 17.5532C45.6303 17.5537 45.2584 17.9244 45.2586 18.3811Z" fill="#1D0900"/>
<path d="M45.5223 18.3809C45.5225 18.6929 45.7771 18.9456 46.0908 18.9454C46.4045 18.9451 46.6586 18.6919 46.6583 18.3799C46.658 18.0679 46.4034 17.8152 46.0898 17.8155C45.7761 17.8158 45.522 18.069 45.5223 18.3809Z" fill="#1D0900"/>
<path d="M20.6633 2.3237L22.6759 2.081L21.8995 7.95532L11.3149 20.7453L9.90054 20.0354L20.6633 2.3237Z" fill="white"/>
<path d="M11.0154 20.157L21.1506 7.90983L21.7934 3.04658L20.9282 3.151L10.6929 19.9953L11.0154 20.157Z" fill="#E07019"/>
<path d="M53.2535 40.673L50.0249 40.6763L48.2798 34.5939L50.2865 31.6896L50.6762 31.6892L53.2535 40.673Z" fill="white"/>
<path d="M47.573 35.617L49.0248 40.6772L48.1823 40.678L46.9777 36.479L47.573 35.617Z" fill="white"/>
<path d="M58.7269 40.667L60.1976 40.6655L58.4321 31.681L56.9617 31.6825L58.7269 40.667Z" fill="white"/>
<path d="M61.5776 44.9219L55.4657 44.9286L55.466 45.1977L61.5779 45.191L61.5776 44.9219Z" fill="#FEA177"/>
<path d="M42.5243 42.0106L41.4321 42.0118L41.4343 44.0291L42.5265 44.0279L42.5243 42.0106Z" fill="white"/>
<path d="M42.5259 43.5975L41.4337 43.5987L41.4343 44.0291L42.5265 44.0279L42.5259 43.5975Z" fill="white"/>
<path d="M42.5214 44.3037L41.4292 44.3047L41.43 45.0836L42.5222 45.0826L42.5214 44.3037Z" fill="white"/>
<path d="M42.5222 45.0826L41.43 45.0836L41.4301 45.2964L42.5223 45.2953L42.5222 45.0826Z" fill="white"/>
<path d="M57.1809 27.8823L57.2271 28.3779L54.572 28.3807L54.6171 27.8851L57.1809 27.8823Z" fill="#E94800"/>
<path d="M57.9633 28.9809L57.9633 29.1701L54.0684 29.1742L54.0684 28.985C54.0684 28.9517 54.073 28.9196 54.0782 28.8875L57.9532 28.8834C57.9584 28.9152 57.963 28.9476 57.9633 28.9809Z" fill="#1D0900"/>
<path d="M55.765 27.0211C55.7653 27.3041 55.9636 27.5332 56.2079 27.533C56.4522 27.5327 56.6501 27.3031 56.6498 27.0201C56.6496 26.7371 56.4512 26.508 56.2069 26.5083C55.9626 26.5085 55.7648 26.7382 55.765 27.0211Z" fill="#FEA177"/>
<path d="M55.1789 27.0219C55.1792 27.3049 55.3776 27.534 55.6219 27.5337C55.8661 27.5335 56.064 27.3038 56.0637 27.0209C56.0635 26.7379 55.8651 26.5088 55.6208 26.509C55.3763 26.5093 55.1787 26.7389 55.1789 27.0219Z" fill="#FF8C58"/>
<path d="M18.0334 2.71261L18.5457 2.96995L14.2946 10.0575L13.912 9.36686L18.0334 2.71261Z" fill="#1D0900"/>
<path d="M70.9662 39.6764L62.8171 39.6848L62.9566 39.1556L70.8254 39.1473L70.9662 39.6764Z" fill="#4D453D"/>
<path d="M73.2349 39.1467L71.538 39.1483L71.5386 39.6776L73.2354 39.6759L73.2349 39.1467Z" fill="#4D453D"/>
<path d="M79.4862 46.5125L79.0907 46.7006L79.0873 43.5729L79.4833 43.7602L79.4862 46.5125Z" fill="#B94678"/>
<path d="M79.0826 42.084L76.3506 42.0867L76.3508 42.3699L79.0829 42.3672L79.0826 42.084Z" fill="#E07019"/>
<path d="M79.0834 42.8133L76.3513 42.816L76.3516 43.0993L79.0836 43.0965L79.0834 42.8133Z" fill="#E07019"/>
<path d="M79.0841 43.5424L76.3521 43.5451L76.3524 43.8283L79.0844 43.8256L79.0841 43.5424Z" fill="#E07019"/>
<path d="M79.0855 44.2707L76.3535 44.2734L76.3537 44.5567L79.0858 44.5539L79.0855 44.2707Z" fill="#E07019"/>
<path d="M68.1265 59.7288L42.1207 59.7546L42.1212 60.2659L68.127 60.2401L68.1265 59.7288Z" fill="#6A6462"/>
</svg>
