<svg width="517" height="8" viewBox="0 0 517 8" fill="none" xmlns="http://www.w3.org/2000/svg">
<path d="M516.354 4.35355C516.549 4.15829 516.549 3.84171 516.354 3.64645L513.172 0.464466C512.976 0.269204 512.66 0.269204 512.464 0.464466C512.269 0.659728 512.269 0.976311 512.464 1.17157L515.293 4L512.464 6.82843C512.269 7.02369 512.269 7.34027 512.464 7.53553C512.66 7.7308 512.976 7.7308 513.172 7.53553L516.354 4.35355ZM125 3.5C124.724 3.5 124.5 3.72386 124.5 4C124.5 4.27614 124.724 4.5 125 4.5V4V3.5ZM516 4V3.5L125 3.5V4V4.5L516 4.5V4Z" fill="#FC5A11"/>
<path d="M13.2129 4L8.12396 4" stroke="#FC5A11" stroke-linecap="round"/>
<path d="M3.03516 4H0.999583" stroke="#FC5A11" stroke-linecap="round"/>
<path d="M38.6582 4L18.3025 4" stroke="#FC5A11" stroke-linecap="round"/>
<path d="M74.2812 4L43.7477 4" stroke="#FC5A11" stroke-linecap="round"/>
<path d="M120.082 4L79.3706 4" stroke="#FC5A11" stroke-linecap="round"/>
</svg>
