<svg width="16" height="16" viewBox="0 0 16 16" fill="none" xmlns="http://www.w3.org/2000/svg">
<path d="M3.83873 0.00233681C3.62756 0.0108674 3.41568 0.0421821 3.20759 0.0977604C3.20758 0.0984632 3.20758 0.0992721 3.20759 0.100028C2.37579 0.323282 1.68601 0.903917 1.33259 1.68199C1.30559 1.74233 1.30114 1.81019 1.31864 1.87395L1.33705 1.94203C1.8459 1.33495 2.5359 0.870857 3.35491 0.65135C3.65427 0.571109 3.95604 0.52763 4.2539 0.517427C4.25371 0.517427 4.25409 0.517427 4.2539 0.517427C4.35237 0.514079 4.45188 0.514079 4.55079 0.517984C4.6823 0.523275 4.81251 0.535175 4.94086 0.553143C5.21905 0.592081 5.48966 0.661625 5.75001 0.756259L5.7327 0.692648C5.71596 0.628053 5.67751 0.571483 5.62332 0.532499C5.27589 0.283564 4.88041 0.119504 4.46763 0.0453534C4.26125 0.00828325 4.0499 -0.00621536 3.83873 0.00233681ZM4.27344 1.08823C4.01809 1.09697 3.75946 1.13438 3.50279 1.20318C1.67749 1.69239 0.59075 3.57657 1.0798 5.40222C1.1204 5.55489 1.27707 5.64569 1.42969 5.60478L7.5 3.9765C7.65268 3.93584 7.74292 3.77923 7.70201 3.62663C7.55827 3.09006 7.29151 2.61973 6.94364 2.23215L4.64453 2.84764C4.60806 2.85799 4.56988 2.86099 4.53224 2.85646C4.49459 2.85192 4.45822 2.83995 4.42525 2.82123C4.39227 2.80251 4.36335 2.77742 4.34016 2.74742C4.31697 2.71742 4.29998 2.68311 4.29018 2.64648C4.28037 2.60985 4.27795 2.57164 4.28305 2.53407C4.28815 2.4965 4.30067 2.46032 4.31989 2.42763C4.3391 2.39494 4.36462 2.3664 4.39497 2.34367C4.42532 2.32093 4.45988 2.30446 4.49665 2.29521L6.44141 1.77458C5.98086 1.42996 5.43884 1.19972 4.86161 1.11892C4.75138 1.10349 4.64026 1.09333 4.5279 1.08878C4.44367 1.08543 4.35855 1.08533 4.27344 1.08823ZM11.7143 3.71423C11.2396 3.71423 10.8571 4.0965 10.8571 4.57134V4.85704H12.5709V4.57134C12.5709 4.0965 12.189 3.71423 11.7143 3.71423ZM7.30748 4.61989L1.79576 6.09806C2.09839 7.35036 3.22684 8.28491 4.57031 8.28491C6.14451 8.28491 7.42578 7.00402 7.42578 5.42956C7.42578 5.15365 7.38494 4.88139 7.30748 4.61989ZM10.5686 5.42956C10.0988 5.42956 9.70982 5.8157 9.70982 6.28555L9.62389 6.28612C9.51845 6.11498 9.33097 6.00042 9.1144 6.00042C8.7821 6.00042 8.51451 6.268 8.51451 6.60028V7.40047C8.51451 7.73276 8.7821 8.00034 9.1144 8.00034C9.3308 8.00034 9.5184 7.88555 9.62389 7.71463H9.70982V8.00034C9.70982 8.47017 10.0988 8.85689 10.5686 8.85689H13.144C13.4399 8.85689 13.7021 8.70329 13.856 8.47241L14.2171 8.56337C14.3977 8.60804 14.5721 8.47096 14.5714 8.28492V6.00098C14.5708 5.84076 14.4386 5.71234 14.2785 5.71639C14.2577 5.71696 14.2372 5.71985 14.2171 5.72481L13.8566 5.81465C13.7027 5.58352 13.4401 5.42956 13.144 5.42956H10.5686ZM15.1049 5.82129C15.1244 5.87791 15.1376 5.93716 15.1378 5.99985V6.00094V8.28377C15.1381 8.34815 15.1243 8.40817 15.1044 8.46568C15.6277 8.25285 16 7.74101 16 7.14431C16 6.54803 15.6276 6.03502 15.1049 5.82129ZM3.57031 8.71569C1.59718 8.71569 0 10.3124 0 12.2859V15.7154C0.000626322 15.8723 0.127673 15.9994 0.284598 16H1.14565C1.14565 15.9998 1.14565 16.0002 1.14565 16V12.4287C1.14565 11.1521 2.25515 10.1425 3.5731 10.1425C4.89106 10.1425 5.99833 11.153 5.99833 12.4287V15.9994C5.99833 15.9992 5.99833 15.9996 5.99833 15.9994L6.85435 16C7.01214 16.0006 7.14055 15.8732 7.14119 15.7154V12.2859C7.14119 10.3124 5.54345 8.71569 3.57031 8.71569ZM9.99665 9.42828C9.5268 9.42828 9.14063 9.81442 9.14063 10.2843C9.14063 10.7541 9.52678 11.143 9.99665 11.143H13.4241C13.894 11.143 14.2807 10.7541 14.2807 10.2843C14.2807 9.81442 13.894 9.42828 13.4241 9.42828H9.99665ZM3.57255 10.7151C2.53712 10.7151 1.71652 11.4829 1.71652 12.4293V16H5.42634V12.4293C5.42634 11.4829 4.60797 10.7151 3.57255 10.7151ZM14.3739 11.2033C14.1681 11.5106 13.8182 11.715 13.4241 11.715H12.7355L14.1897 15.8103C14.2304 15.9244 14.3387 16.0004 14.4598 16H15.6724C15.8704 16.0006 16.009 15.8047 15.9425 15.6183L14.3739 11.2033ZM9.09319 11.2586L7.54409 15.6183C7.47757 15.8047 7.61621 16.0006 7.81418 16H9.02679C9.14794 16.0004 9.25617 15.9244 9.29688 15.8103L10.7511 11.715H9.99665C9.62805 11.715 9.30215 11.5332 9.09319 11.2586ZM10.8532 11.715V15.7154C10.8539 15.8732 10.9823 16.0006 11.1401 16H12.2813C12.439 16.0006 12.5675 15.8732 12.5681 15.7154V11.715H10.8532Z" fill="#1D0900"/>
</svg>
