<svg width="146" height="140" viewBox="0 0 146 140" fill="none" xmlns="http://www.w3.org/2000/svg">
<path fill-rule="evenodd" clip-rule="evenodd" d="M1.00696 1.00502L0 2.00964V59.9739V117.938L1.00696 118.943L2.01351 119.948H8.77552H15.5375L15.6647 127.902L15.7914 135.856L16.6372 136.985C17.1023 137.606 17.9924 138.494 18.6154 138.959L19.7479 139.803L62.6829 139.901L105.618 140L107.236 139.083C108.126 138.578 109.233 137.52 109.697 136.732L110.54 135.3L110.658 123.223L110.777 111.146L127.769 94.157C139.362 82.5646 144.96 76.6843 145.39 75.6457C146.12 73.8805 146.205 71.3632 145.589 69.7458C144.92 67.99 137.102 60.2769 135.433 59.7275C133.525 59.0991 130.709 59.1928 129.314 59.9313C128.689 60.2625 124.301 64.4161 119.564 69.1616L110.95 77.7897L110.745 48.4131L110.54 19.0361L109.72 17.6462C109.268 16.8815 108.379 15.8683 107.744 15.3947L106.588 14.5329L102.617 14.3282L98.6451 14.1236L98.44 7.84328L98.2349 1.5626L97.2665 0.781502L96.2981 0H49.156H2.01351L1.00696 1.00502ZM3.28133 59.9739V116.673H9.43383H15.5863L15.5974 79.317L15.6081 41.9613L29.2354 28.1255L42.8624 14.2898L69.0106 14.309L95.1587 14.3282V8.80163V3.27503H49.22H3.28133V59.9739ZM45.1183 29.0863V40.569L44.4961 41.7701C44.154 42.4304 43.3325 43.2504 42.6709 43.5918L41.4674 44.2129H30.1678H18.8677V89.4676V134.723L19.8746 135.727L20.8812 136.732H63.0754H105.27L106.264 135.677L107.259 134.621L107.379 124.521L107.499 114.421L104.713 117.139C103.18 118.633 101.538 120.053 101.063 120.294C98.5946 121.546 75.2865 131.41 74.7964 131.41C74.4809 131.41 74.0326 130.995 73.8009 130.487L73.3792 129.563L79.3357 116.261L85.2921 102.959L96.381 92.1101L107.469 81.2616L107.467 50.8448L107.464 20.4284L106.864 19.2703C106.533 18.6329 105.965 17.9975 105.599 17.8575C105.234 17.7179 91.4766 17.6033 75.0269 17.6033H45.1183V29.0863ZM31.4364 30.5654L21.2413 40.9378H31.0787H40.9162L41.3842 40.3753L41.8518 39.8129L41.7418 30.0029L41.6319 20.193L31.4364 30.5654ZM28.7937 50.4354C28.4701 50.7584 28.3015 52.4823 28.3015 55.4708C28.3015 58.4592 28.4701 60.1831 28.7937 60.5061C29.0644 60.7763 30.0796 60.9974 31.0496 60.9974H32.8133V86.1242V111.251L33.406 111.741C33.7321 112.012 34.4241 112.172 34.9442 112.099L35.8896 111.965L35.9954 86.4812L36.1008 60.9974H38.134H40.1676L40.5921 60.2056C40.8255 59.77 41.0167 58.8502 41.0167 58.162V56.9101L65.4794 56.8045L89.9422 56.6989L90.397 55.9567L90.8519 55.2149L89.8835 54.4215L88.9151 53.6286H64.9659H41.0167V52.5781C41.0167 52.0005 40.8255 51.1715 40.5921 50.7359L40.1676 49.9442H34.7268C31.0418 49.9442 29.1272 50.1026 28.7937 50.4354ZM31.5828 55.4708V57.7223H34.6591H37.7353V55.4708V53.2192H34.6591H31.5828V55.4708ZM128.543 64.7596L126.292 66.8842L132.152 72.7424C135.374 75.9642 138.228 78.6006 138.494 78.6006C139.184 78.6006 142.301 74.9625 142.587 73.822C142.72 73.2951 142.713 72.252 142.573 71.5041L142.317 70.1441L138.481 66.3893L134.645 62.6349H132.72H130.794L128.543 64.7596ZM44.9366 65.1824L44.298 66.0921V77.1678V88.2435L44.9366 89.1532L45.5749 90.0632H48.5765H51.5781L51.7589 93.5041L51.9398 96.9445L53.2741 99.6496C55.756 104.681 60.2855 108.066 65.7961 109.008L68.4978 109.47L71.1996 109.008C76.6803 108.071 81.2655 104.628 83.7556 99.58L85.0559 96.9445L85.233 93.5687L85.4107 90.193L84.7142 87.7744C82.9862 81.7741 77.3579 76.5935 71.7513 75.8431L70.1385 75.6273V70.4409C70.1385 66.9534 69.9773 65.094 69.6463 64.7636L69.1541 64.2724H57.3647H45.5749L44.9366 65.1824ZM47.7631 68.069C47.6532 68.3555 47.6126 72.6388 47.6737 77.587L47.7844 86.5835L50.0855 86.7047L52.3869 86.8255L53.4714 84.6128C55.4968 80.4805 60.9512 76.4178 65.2444 75.8431L66.8572 75.6273V71.5872V67.5474H57.4106H47.9637L47.7631 68.069ZM107.257 85.9707C97.6705 95.5411 90.7469 102.754 91.1472 102.754C92.1489 102.754 94.6148 105.033 94.9179 106.238C95.059 106.799 95.31 107.257 95.4761 107.257C95.6418 107.257 103.251 99.7966 112.384 90.6785L128.991 74.0995L126.53 71.6432L124.069 69.187L107.257 85.9707ZM114.537 93.0333C105.458 102.097 98.0298 109.63 98.0298 109.773C98.0298 109.917 98.4708 110.144 99.0097 110.28C99.9617 110.518 102.235 112.758 102.655 113.87C102.872 114.447 135.765 82.0415 135.765 81.2497C135.765 80.8395 131.634 76.5537 131.239 76.5537C131.132 76.5537 123.616 83.9696 114.537 93.0333ZM62.3031 80.3405C59.9176 81.5731 56.1928 85.2633 56.1928 86.394C56.1928 86.6265 58.3819 86.7882 61.525 86.7882H66.8572V82.8991V79.01H65.8674C65.3232 79.01 63.7194 79.6085 62.3031 80.3405ZM70.1385 83.8935V88.7765L69.4941 89.4201L68.8493 90.0632H61.8531H54.8569L55.0476 93.2359L55.2384 96.4086L56.2941 98.4719C57.5694 100.964 60.4852 103.737 63.0935 104.938L65.0114 105.822L68.4978 105.821L71.9843 105.82L74.3234 104.676C84.3992 99.7467 84.6162 85.4684 74.6926 80.3405C73.2763 79.6085 71.6725 79.01 71.1282 79.01H70.1385V83.8935ZM86.4681 108.383C85.7769 109.903 84.5969 112.528 83.8455 114.217L82.4792 117.287L85.0936 119.91L87.708 122.534L93.7317 119.944L99.7554 117.354L99.5204 115.888C99.1795 113.763 98.0097 112.988 95.1373 112.988C93.8154 112.988 92.6193 112.783 92.4622 112.53C92.306 112.278 92.1567 110.972 92.13 109.628L92.0816 107.184L91.1136 106.402C90.5812 105.972 89.6009 105.62 88.9352 105.62H87.7244L86.4681 108.383ZM79.6433 123.663C78.9382 125.256 78.5055 126.5 78.6815 126.426C78.8574 126.353 80.245 125.756 81.7643 125.099L84.5272 123.905L82.9919 122.336C82.1474 121.473 81.3369 120.767 81.1909 120.767C81.0444 120.767 80.348 122.07 79.6433 123.663Z" fill="#1D0900"/>
</svg>
