<svg width="140" height="140" viewBox="0 0 140 140" fill="none" xmlns="http://www.w3.org/2000/svg">
<path d="M76.6319 2.26075C78.7631 4.00003 79.916 6.13235 80.5594 8.79001C80.8027 8.79598 81.0459 8.80196 81.2966 8.80811C82.3942 8.83675 83.4917 8.86984 84.5892 8.90305C84.9722 8.91238 85.3551 8.9217 85.7497 8.93131C86.1148 8.94297 86.4798 8.95462 86.856 8.96663C87.3625 8.98084 87.3625 8.98084 87.8792 8.99534C88.6944 9.09145 88.6944 9.09145 89.297 9.69433C89.3654 10.5099 89.3654 10.5099 89.3558 11.5336C89.3539 11.8989 89.3519 12.2641 89.3499 12.6404C89.3449 13.0236 89.3398 13.4067 89.3346 13.8015C89.3319 14.1869 89.3292 14.5724 89.3264 14.9696C89.3193 15.9242 89.3093 16.8787 89.297 17.8332C89.6573 17.8312 90.0177 17.8292 90.389 17.8272C93.7806 17.8088 97.1723 17.7953 100.564 17.7864C102.308 17.7817 104.052 17.7752 105.795 17.765C107.477 17.7552 109.159 17.7498 110.841 17.7474C111.484 17.7458 112.127 17.7425 112.769 17.7376C113.667 17.7311 114.565 17.7302 115.464 17.7306C115.731 17.7273 115.998 17.7241 116.273 17.7207C116.64 17.7226 116.64 17.7226 117.015 17.7245C117.227 17.7237 117.44 17.7228 117.658 17.722C118.433 17.8751 118.652 18.1041 119.125 18.7376C119.238 19.6056 119.238 19.6056 119.237 20.6896C119.238 20.8896 119.239 21.0896 119.24 21.2957C119.242 21.9708 119.238 22.6458 119.234 23.3209C119.234 23.8078 119.235 24.2948 119.236 24.7817C119.238 26.1235 119.235 27.4653 119.23 28.8071C119.226 30.2526 119.228 31.6982 119.228 33.1437C119.229 35.6495 119.226 38.1552 119.221 40.661C119.214 44.2839 119.211 47.9069 119.21 51.5298C119.208 57.4074 119.202 63.2849 119.193 69.1625C119.185 74.873 119.179 80.5835 119.175 86.294C119.175 86.6458 119.174 86.9976 119.174 87.3601C119.173 89.125 119.172 90.89 119.171 92.6549C119.161 107.304 119.145 121.952 119.125 136.601C119.369 136.598 119.612 136.595 119.862 136.591C120.96 136.579 122.058 136.571 123.155 136.563C123.538 136.558 123.921 136.553 124.316 136.548C124.863 136.545 124.863 136.545 125.422 136.542C125.928 136.537 125.928 136.537 126.445 136.533C127.26 136.601 127.26 136.601 127.863 137.204C127.957 138.259 127.957 138.259 127.863 139.314C126.792 140.028 126.342 139.992 125.072 139.993C124.879 139.994 124.686 139.994 124.487 139.995C123.835 139.998 123.184 139.995 122.533 139.993C122.063 139.994 121.593 139.995 121.123 139.996C119.828 139.999 118.533 139.998 117.239 139.996C115.844 139.994 114.449 139.996 113.054 139.998C110.32 140.001 107.586 140 104.851 139.998C102.63 139.997 100.409 139.997 98.1874 139.998C97.8717 139.998 97.556 139.998 97.2308 139.998C96.5895 139.998 95.9482 139.998 95.3069 139.998C89.2885 140 83.27 139.998 77.2516 139.995C72.0832 139.992 66.9149 139.993 61.7466 139.995C55.7502 139.999 49.7538 140 43.7575 139.998C43.1185 139.998 42.4795 139.998 41.8406 139.998C41.5262 139.997 41.2118 139.997 40.8878 139.997C38.6682 139.997 36.4486 139.998 34.2289 139.999C31.5253 140.001 28.8217 140 26.1181 139.997C24.7377 139.995 23.3573 139.995 21.9769 139.997C20.7146 139.999 19.4524 139.998 18.1901 139.994C17.7321 139.994 17.2741 139.994 16.8161 139.996C16.1962 139.997 15.5763 139.996 14.9564 139.993C14.6112 139.993 14.2661 139.993 13.9105 139.992C13.069 139.917 13.069 139.917 12.1651 139.314C12.071 138.259 12.071 138.259 12.1651 137.204C12.7677 136.601 12.7677 136.601 13.5829 136.533C13.9206 136.536 14.2582 136.539 14.6061 136.542C14.9712 136.544 15.3363 136.546 15.7124 136.548C16.0954 136.553 16.4783 136.558 16.8729 136.563C17.2582 136.566 17.6434 136.569 18.0404 136.572C18.9946 136.579 19.9486 136.589 20.9027 136.601C20.9022 136.227 20.9022 136.227 20.9017 135.846C20.8815 121.098 20.866 106.35 20.8566 91.6019C20.8554 89.8326 20.8543 88.0633 20.8531 86.294C20.8528 85.9417 20.8526 85.5895 20.8524 85.2266C20.8484 79.5168 20.8413 73.807 20.833 68.0972C20.8245 62.2421 20.8195 56.3869 20.8177 50.5318C20.8164 46.9164 20.8125 43.3011 20.8052 39.6857C20.8004 37.2094 20.799 34.733 20.8001 32.2566C20.8007 30.8261 20.7998 29.3956 20.795 27.9651C20.7906 26.657 20.7903 25.349 20.7934 24.0409C20.7938 23.5662 20.7927 23.0915 20.7898 22.6168C20.7862 21.9743 20.7882 21.3321 20.7915 20.6896C20.791 20.153 20.791 20.153 20.7905 19.6056C20.9027 18.7376 20.9027 18.7376 21.3264 18.1704C21.9308 17.746 22.2783 17.7216 23.0134 17.7245C23.258 17.7232 23.5026 17.722 23.7547 17.7207C24.1555 17.7256 24.1555 17.7256 24.5644 17.7306C24.8466 17.7304 25.1289 17.7303 25.4197 17.7302C26.3539 17.7308 27.2879 17.7378 28.2221 17.7449C28.8693 17.7466 29.5165 17.7479 30.1637 17.7488C31.8682 17.7523 33.5725 17.7611 35.2769 17.7711C37.0158 17.7804 38.7546 17.7845 40.4935 17.7891C43.906 17.7988 47.3185 17.8142 50.731 17.8332C50.7279 17.5898 50.7247 17.3465 50.7215 17.0957C50.709 15.9976 50.7011 14.8996 50.6934 13.8015C50.6883 13.4183 50.6833 13.0352 50.6781 12.6404C50.6761 12.2752 50.6742 11.9099 50.6722 11.5336C50.669 11.1958 50.6659 10.858 50.6626 10.5099C50.731 9.69433 50.731 9.69433 51.3336 9.09145C52.1488 8.99534 52.1488 8.99534 53.172 8.96663C53.7196 8.94915 53.7196 8.94915 54.2783 8.93131C54.6613 8.92198 55.0442 8.91266 55.4388 8.90305C55.8241 8.89139 56.2094 8.87973 56.6063 8.86772C57.5604 8.83923 58.5144 8.81344 59.4686 8.79001C59.546 8.56573 59.6234 8.34145 59.7031 8.11037C59.8075 7.81435 59.9119 7.51832 60.0194 7.21333C60.1217 6.92066 60.2239 6.62799 60.3293 6.32645C61.3839 3.71771 63.4645 1.85603 66.003 0.707621C69.7356 -0.631126 73.4189 -0.046715 76.6319 2.26075ZM63.7868 6.68934C62.7417 8.23477 62.5832 9.99055 62.1803 11.8044C59.3963 11.9039 56.6124 12.0034 53.744 12.1059C53.744 16.9802 53.744 21.8545 53.744 26.8765C64.4822 26.8765 75.2204 26.8765 86.284 26.8765C86.284 22.0022 86.284 17.1279 86.284 12.1059C82.108 11.9566 82.108 11.9566 77.8477 11.8044C77.5494 10.6107 77.2511 9.41701 76.9438 8.18713C75.6823 5.76521 74.1998 4.21293 71.5205 3.36407C68.3053 2.87044 65.775 4.19242 63.7868 6.68934ZM24.217 21.1491C24.217 59.2482 24.217 97.3474 24.217 136.601C54.443 136.601 84.6691 136.601 115.811 136.601C115.811 98.5019 115.811 60.4027 115.811 21.1491C107.061 21.1491 98.3118 21.1491 89.297 21.1491C89.1975 23.9344 89.0981 26.7197 88.9957 29.5894C88.1093 29.885 87.54 29.9288 86.6166 29.9292C86.3124 29.93 86.0083 29.9309 85.6949 29.9317C85.3615 29.9311 85.0281 29.9305 84.6845 29.9299C84.3332 29.9304 83.9819 29.9309 83.6199 29.9315C82.4554 29.9328 81.2908 29.9319 80.1263 29.9309C79.3191 29.9311 78.5119 29.9314 77.7048 29.9318C76.0118 29.9323 74.3189 29.9316 72.6259 29.9302C70.6682 29.9285 68.7104 29.9291 66.7527 29.9307C65.0723 29.9321 63.3919 29.9323 61.7116 29.9315C60.7077 29.931 59.7039 29.9311 58.7 29.932C57.5812 29.9327 56.4623 29.9316 55.3435 29.9299C54.8434 29.9308 54.8434 29.9308 54.3331 29.9317C53.8769 29.9305 53.8769 29.9305 53.4114 29.9292C53.1468 29.929 52.8822 29.9289 52.6096 29.9288C51.9362 29.8909 51.9362 29.8909 51.0323 29.5894C50.9329 26.8041 50.8335 24.0188 50.731 21.1491C41.9814 21.1491 33.2318 21.1491 24.217 21.1491Z" fill="#1D0900"/>
<path d="M35.1327 38.481C35.513 38.4763 35.513 38.4763 35.901 38.4715C36.178 38.4742 36.4551 38.4769 36.7405 38.4797C37.036 38.4778 37.3314 38.4759 37.6358 38.474C38.6287 38.4691 39.6213 38.473 40.6141 38.4768C41.3247 38.4751 42.0354 38.473 42.746 38.4703C44.6783 38.4648 46.6104 38.467 48.5427 38.4708C49.7489 38.4729 50.9552 38.4725 52.1614 38.4714C52.3616 38.4712 52.5618 38.4711 52.768 38.4709C53.1747 38.4705 53.5813 38.4701 53.988 38.4697C57.802 38.4663 61.6161 38.4702 65.4301 38.4767C68.7035 38.4821 71.9768 38.4811 75.2502 38.4756C79.0505 38.4691 82.8508 38.4666 86.6511 38.4703C87.0563 38.4707 87.4614 38.471 87.8666 38.4714C88.0659 38.4716 88.2653 38.4718 88.4707 38.472C89.8762 38.473 91.2817 38.4712 92.6872 38.4684C94.5786 38.465 96.4699 38.4674 98.3613 38.4743C99.0565 38.4759 99.7518 38.4755 100.447 38.4728C101.394 38.4695 102.341 38.4736 103.288 38.4797C103.565 38.477 103.842 38.4743 104.127 38.4715C104.381 38.4747 104.634 38.4778 104.895 38.481C105.223 38.4813 105.223 38.4813 105.558 38.4816C106.453 38.7029 106.816 39.1169 107.375 39.8385C107.525 40.5436 107.525 40.5436 107.525 41.3394C107.527 41.6434 107.53 41.9475 107.533 42.2608C107.53 42.5942 107.527 42.9277 107.524 43.2713C107.525 43.6259 107.527 43.9806 107.528 44.3461C107.531 45.3309 107.528 46.3156 107.523 47.3004C107.519 48.3624 107.522 49.4243 107.525 50.4862C107.528 52.5667 107.524 54.6471 107.519 56.7276C107.512 59.1494 107.512 61.5712 107.513 63.993C107.513 68.3135 107.508 72.6341 107.499 76.9546C107.49 81.1489 107.486 85.3432 107.486 89.5375C107.486 89.9249 107.486 89.9249 107.486 90.3202C107.486 90.5781 107.487 90.836 107.487 91.1017C107.487 95.8739 107.483 100.646 107.478 105.419C107.476 107.107 107.476 108.796 107.475 110.485C107.475 112.543 107.472 114.6 107.467 116.658C107.464 117.708 107.462 118.758 107.463 119.809C107.463 120.946 107.46 122.083 107.455 123.221C107.456 123.554 107.457 123.888 107.458 124.231C107.455 124.687 107.455 124.687 107.452 125.153C107.452 125.415 107.451 125.678 107.451 125.949C107.375 126.654 107.375 126.654 106.772 127.859C82.5118 127.859 58.2514 127.859 33.2559 127.859C32.6854 126.718 32.5777 126.355 32.5758 125.153C32.5728 124.697 32.5728 124.697 32.5699 124.231C32.5708 123.898 32.5717 123.564 32.5727 123.221C32.5713 122.866 32.57 122.511 32.5686 122.146C32.5654 121.161 32.565 120.176 32.5657 119.192C32.5658 118.13 32.5625 117.068 32.5596 116.006C32.5546 113.925 32.5529 111.845 32.5526 109.765C32.5523 108.074 32.5511 106.383 32.5492 104.693C32.5439 99.902 32.5411 95.1111 32.5415 90.3202C32.5416 90.0619 32.5416 89.8036 32.5416 89.5375C32.5416 89.2788 32.5417 89.0202 32.5417 88.7537C32.5419 84.5598 32.5362 80.3658 32.5277 76.1719C32.519 71.8676 32.5149 67.5633 32.5154 63.2591C32.5156 60.8417 32.5139 58.4243 32.5074 56.007C32.502 53.9493 32.5006 51.8917 32.5047 49.834C32.5067 48.7838 32.5067 47.7336 32.5015 46.6834C32.4969 45.5459 32.4996 44.4087 32.5043 43.2713C32.5012 42.9378 32.4981 42.6043 32.4949 42.2608C32.4977 41.9567 32.5004 41.6526 32.5033 41.3394C32.5032 41.0767 32.503 40.8141 32.5029 40.5436C32.8058 39.1235 33.7253 38.4823 35.1327 38.481ZM35.9675 41.9486C35.9675 69.3044 35.9675 96.6602 35.9675 124.845C58.4382 124.845 80.9089 124.845 104.06 124.845C104.06 97.4891 104.06 70.1334 104.06 41.9486C81.5898 41.9486 59.1191 41.9486 35.9675 41.9486Z" fill="#1D0900"/>
<path d="M136.543 45.7025C138.318 46.956 139.439 48.5623 139.915 50.6904C140.19 52.8356 139.809 54.8893 138.622 56.7133C137.376 58.2775 135.878 59.3357 133.889 59.7336C131.451 60.0064 129.58 59.6548 127.562 58.2264C126.02 56.8096 124.967 55.4516 124.749 53.3221C124.718 50.577 124.976 48.9258 126.771 46.847C129.69 44.3438 133.089 43.7278 136.543 45.7025ZM128.503 49.8238C127.892 51.3856 127.904 53.0005 128.484 54.5714C129.594 55.7895 130.761 56.4773 132.401 56.5685C133.984 56.3674 134.796 55.7698 135.941 54.7033C136.505 53.6046 136.635 52.5221 136.6 51.2933C136.051 49.6737 135.11 48.7389 133.588 47.9774C131.381 47.7081 130.014 48.1108 128.503 49.8238Z" fill="#1D0900"/>
<path d="M12.4664 16.3262C14.3777 18.0776 15.2142 19.8767 15.3287 22.4492C15.2698 24.6809 14.6676 26.3876 13.1549 28.0459C11.4274 29.6154 9.65926 30.1586 7.34438 30.1925C5.05039 29.9543 3.43958 29.0996 1.86455 27.4041C0.519812 25.7445 -0.0740651 24.0027 0.00734428 21.8628C0.319743 19.7583 1.14745 17.9626 2.82493 16.6276C5.78244 14.5167 9.37023 14.0776 12.4664 16.3262ZM4.63271 19.3406C3.79353 20.2957 3.45723 21.2426 3.27688 22.5057C3.49489 24.0325 3.94407 25.1389 5.16469 26.0818C6.412 26.7966 7.46446 27.054 8.88381 26.78C10.0731 26.3523 10.9492 25.5865 11.6049 24.4969C12.0557 23.392 12.0304 22.3201 11.8638 21.1492C11.2597 19.9835 10.6251 19.0549 9.45345 18.4363C7.53592 17.9566 6.22303 18.1121 4.63271 19.3406Z" fill="#1D0900"/>
<path d="M129.708 77.3114C130.575 77.5187 130.575 77.5187 130.876 77.8201C130.906 78.3069 130.915 78.7951 130.916 79.2828C130.917 79.5994 130.919 79.916 130.92 80.2422C130.92 80.5925 130.92 80.9428 130.92 81.3037C130.921 81.8536 130.921 81.8536 130.923 82.4146C130.925 83.4229 130.926 84.4312 130.926 85.4395C130.927 86.2801 130.928 87.1206 130.929 87.9612C130.931 89.9436 130.932 91.926 130.932 93.9084C130.931 95.9562 130.935 98.0039 130.939 100.052C130.943 101.807 130.945 103.563 130.945 105.319C130.945 106.368 130.946 107.418 130.949 108.468C130.952 109.638 130.951 110.808 130.949 111.978C130.951 112.327 130.952 112.677 130.954 113.037C130.953 113.355 130.952 113.672 130.95 113.999C130.95 114.276 130.951 114.553 130.951 114.838C130.876 115.5 130.876 115.5 130.273 116.103C129.369 116.178 129.369 116.178 128.465 116.103C127.699 115.336 127.787 115.065 127.784 114.001C127.782 113.684 127.78 113.367 127.778 113.041C127.779 112.691 127.779 112.342 127.78 111.982C127.779 111.616 127.777 111.249 127.775 110.871C127.772 109.864 127.771 108.857 127.772 107.85C127.772 107.01 127.771 106.171 127.769 105.331C127.766 103.35 127.766 101.37 127.768 99.3892C127.77 97.3437 127.766 95.2982 127.759 93.2527C127.754 91.4983 127.752 89.7439 127.753 87.9895C127.754 86.9409 127.753 85.8923 127.749 84.8436C127.744 83.675 127.747 82.5065 127.751 81.3379C127.748 80.9887 127.746 80.6395 127.744 80.2797C127.746 79.9627 127.748 79.6456 127.75 79.319C127.75 79.0425 127.75 78.766 127.75 78.4811C127.787 78.263 127.824 78.0448 127.863 77.8201C128.767 77.2172 128.767 77.2172 129.708 77.3114Z" fill="#1D0900"/>
<path d="M10.6586 47.6006C11.5625 47.676 11.5625 47.676 12.1651 48.2789C12.2418 48.9398 12.2418 48.9398 12.2437 49.7778C12.2458 50.0948 12.2479 50.4118 12.2501 50.7384C12.2494 51.0876 12.2487 51.4368 12.2479 51.7966C12.2494 52.1633 12.251 52.5299 12.2525 52.9077C12.256 53.9147 12.2568 54.9218 12.256 55.9288C12.2557 56.7687 12.2571 57.6084 12.2586 58.4483C12.2619 60.4288 12.2621 62.4093 12.2602 64.3899C12.2584 66.4354 12.2621 68.4809 12.2685 70.5264C12.2738 72.2808 12.2757 74.0352 12.2747 75.7896C12.2741 76.8382 12.2749 77.8868 12.2791 78.9355C12.2836 80.1041 12.2808 81.2726 12.2773 82.4412C12.2796 82.7904 12.2819 83.1396 12.2843 83.4994C12.2822 83.8164 12.2801 84.1334 12.2779 84.4601C12.2779 84.7366 12.278 85.0131 12.278 85.298C12.2408 85.5161 12.2035 85.7343 12.1651 85.959C11.2612 86.5619 11.2612 86.5619 10.4892 86.4865C9.75476 86.2604 9.75476 86.2604 9.15217 85.6575C9.07633 85.0013 9.07633 85.0013 9.07565 84.1701C9.07395 83.8556 9.07225 83.5411 9.0705 83.2171C9.07172 82.8707 9.07294 82.5243 9.07419 82.1674C9.07314 81.8037 9.07208 81.44 9.07099 81.0653C9.06879 80.0663 9.06931 79.0674 9.07122 78.0684C9.07275 77.0243 9.07133 75.9802 9.07039 74.9361C9.06929 73.1825 9.07074 71.4289 9.07361 69.6753C9.07689 67.6462 9.07582 65.6171 9.0725 63.5881C9.06977 61.8478 9.06938 60.1075 9.07096 58.3672C9.0719 57.3269 9.07202 56.2868 9.07004 55.2465C9.06798 54.0873 9.07083 52.9282 9.07419 51.769C9.07236 51.2494 9.07236 51.2494 9.0705 50.7193C9.0722 50.4048 9.0739 50.0903 9.07565 49.7663C9.07587 49.492 9.0761 49.2177 9.07633 48.9351C9.20339 47.8356 9.59817 47.689 10.6586 47.6006Z" fill="#1D0900"/>
<path d="M61.2108 97.8836C61.879 98.0167 61.879 98.0167 62.4251 98.3747C62.9142 99.1215 62.8853 99.5455 62.7829 100.428C62.3146 101.09 62.3146 101.09 61.6499 101.762C61.4024 102.015 61.1549 102.268 60.8999 102.529C60.6287 102.798 60.3576 103.068 60.0783 103.345C59.8017 103.624 59.5251 103.903 59.2401 104.19C58.6544 104.78 58.066 105.366 57.4756 105.951C56.7202 106.7 55.9725 107.456 55.2267 108.215C54.5131 108.938 53.7928 109.655 53.0731 110.372C52.8056 110.644 52.5382 110.917 52.2626 111.197C52.0094 111.446 51.7562 111.694 51.4953 111.95C51.2745 112.171 51.0537 112.391 50.8262 112.618C49.9229 113.227 49.3887 113.249 48.3206 113.089C47.6896 112.279 47.275 111.584 46.8142 110.677C46.6285 110.335 46.4429 109.993 46.2516 109.641C44.5019 106.338 44.5019 106.338 44.7051 104.648C45.3077 104.046 45.3077 104.046 46.1739 103.914C47.1155 104.046 47.1155 104.046 47.7557 104.648C49.5258 107.482 49.5258 107.482 49.5258 108.567C51.1041 107.275 52.542 105.863 53.9641 104.405C54.1455 104.219 54.327 104.034 54.514 103.843C55.2738 103.066 56.0332 102.289 56.7869 101.507C57.3427 100.931 57.9032 100.359 58.4647 99.7888C58.6339 99.6108 58.8031 99.4328 58.9774 99.2494C59.7048 98.5167 60.1729 98.0484 61.2108 97.8836Z" fill="#1D0900"/>
<path d="M61.2108 77.0841C61.879 77.2173 61.879 77.2173 62.4251 77.5752C62.9142 78.3221 62.8853 78.746 62.7829 79.6288C62.3146 80.2907 62.3146 80.2907 61.6499 80.9621C61.4024 81.2155 61.1549 81.4688 60.8999 81.7299C60.6287 81.999 60.3576 82.2682 60.0783 82.5455C59.8017 82.8244 59.5251 83.1032 59.2401 83.3906C58.6544 83.9801 58.066 84.5668 57.4756 85.1517C56.7202 85.9006 55.9725 86.6567 55.2267 87.4152C54.5131 88.1387 53.7928 88.8554 53.0731 89.5728C52.8056 89.845 52.5382 90.1172 52.2626 90.3977C52.0094 90.6463 51.7562 90.8949 51.4953 91.151C51.2745 91.3714 51.0537 91.5918 50.8262 91.8188C49.9229 92.4279 49.3887 92.45 48.3206 92.2893C47.6896 91.4799 47.275 90.7841 46.8142 89.8778C46.6285 89.5358 46.4429 89.1939 46.2516 88.8416C44.5019 85.5387 44.5019 85.5387 44.7051 83.849C45.3077 83.2461 45.3077 83.2461 46.1739 83.1142C47.1155 83.2461 47.1155 83.2461 47.7557 83.849C49.5258 86.6825 49.5258 86.6825 49.5258 87.7677C51.1041 86.4758 52.542 85.0637 53.9641 83.6052C54.1455 83.4199 54.327 83.2345 54.514 83.0435C55.2738 82.2669 56.0332 81.49 56.7869 80.7075C57.3427 80.1313 57.9032 79.5601 58.4647 78.9894C58.6339 78.8114 58.8031 78.6334 58.9774 78.45C59.7048 77.7173 60.1729 77.249 61.2108 77.0841Z" fill="#1D0900"/>
<path d="M61.2108 56.2847C61.879 56.4178 61.879 56.4178 62.4251 56.7758C62.9142 57.5226 62.8853 57.9466 62.7829 58.8294C62.3146 59.4913 62.3146 59.4913 61.6499 60.1627C61.4024 60.416 61.1549 60.6694 60.8999 60.9304C60.6287 61.1996 60.3576 61.4687 60.0783 61.746C59.8017 62.0249 59.5251 62.3038 59.2401 62.5911C58.6544 63.1807 58.066 63.7674 57.4756 64.3522C56.7202 65.1011 55.9725 65.8573 55.2267 66.6158C54.5131 67.3393 53.7928 68.056 53.0731 68.7734C52.8056 69.0456 52.5382 69.3178 52.2626 69.5983C52.0094 69.8469 51.7562 70.0955 51.4953 70.3516C51.2745 70.572 51.0537 70.7923 50.8262 71.0194C49.9229 71.6285 49.3887 71.6505 48.3206 71.4899C47.6896 70.6804 47.275 69.9847 46.8142 69.0784C46.6285 68.7364 46.4429 68.3945 46.2516 68.0422C44.5019 64.7393 44.5019 64.7393 44.7051 63.0495C45.3077 62.4467 45.3077 62.4467 46.1739 62.3148C47.1155 62.4467 47.1155 62.4467 47.7557 63.0495C49.5258 65.8831 49.5258 65.8831 49.5258 66.9683C51.1041 65.6764 52.542 64.2643 53.9641 62.8058C54.1455 62.6204 54.327 62.4351 54.514 62.2441C55.2738 61.4675 56.0332 60.6906 56.7869 59.908C57.3427 59.3319 57.9032 58.7606 58.4647 58.19C58.6339 58.012 58.8031 57.834 58.9774 57.6506C59.7048 56.9179 60.1729 56.4495 61.2108 56.2847Z" fill="#1D0900"/>
<path d="M74.2905 62.3001C74.5101 62.2989 74.7296 62.2978 74.9558 62.2966C75.6818 62.2944 76.4074 62.3008 77.1333 62.3076C77.6372 62.3083 78.1411 62.3086 78.645 62.3084C79.701 62.3094 80.7568 62.3144 81.8127 62.3224C83.1681 62.3327 84.5233 62.335 85.8787 62.3345C86.9191 62.3347 87.9594 62.338 88.9997 62.3424C89.4996 62.3443 89.9994 62.3455 90.4993 62.3459C91.1969 62.3472 91.8943 62.3525 92.5919 62.3589C92.9893 62.3612 93.3866 62.3635 93.796 62.3659C94.7203 62.4465 94.7203 62.4465 95.3229 63.0494C95.4881 64.6033 95.4881 64.6033 94.9968 65.3609C94.1171 65.9722 93.3734 65.8751 92.3117 65.8746C91.9919 65.8763 91.9919 65.8763 91.6656 65.8779C90.9607 65.8804 90.2561 65.8763 89.5512 65.8719C89.0615 65.8717 88.5718 65.8719 88.0822 65.8723C87.0559 65.8723 86.0296 65.8692 85.0033 65.8637C83.6872 65.8569 82.3712 65.8567 81.055 65.8587C80.0439 65.8598 79.0327 65.8577 78.0216 65.8548C77.5363 65.8536 77.0509 65.8533 76.5656 65.8538C75.8876 65.8539 75.2097 65.8501 74.5317 65.8452C74.1457 65.8438 73.7597 65.8424 73.362 65.841C72.4244 65.7624 72.4244 65.7624 71.5205 65.1595C71.2569 64.4436 71.2569 64.4436 71.2192 63.6523C71.9258 62.2056 72.7771 62.2968 74.2905 62.3001Z" fill="#1D0900"/>
<path d="M74.2905 86.114C74.5101 86.1129 74.7296 86.1117 74.9559 86.1105C75.6818 86.1083 76.4074 86.1147 77.1333 86.1215C77.6372 86.1222 78.1411 86.1225 78.645 86.1223C79.701 86.1233 80.7568 86.1283 81.8128 86.1364C83.1681 86.1466 84.5233 86.1489 85.8787 86.1485C86.9191 86.1486 87.9594 86.1519 88.9997 86.1563C89.4996 86.1582 89.9995 86.1594 90.4993 86.1599C91.1969 86.1612 91.8943 86.1664 92.5919 86.1729C92.9893 86.1752 93.3866 86.1775 93.7961 86.1798C94.7203 86.2605 94.7203 86.2605 95.3229 86.8633C95.3982 87.7677 95.3982 87.7677 95.3229 88.672C94.5873 89.4079 94.1957 89.3456 93.1922 89.3499C92.9802 89.3477 92.7683 89.3455 92.5499 89.3433C92.3265 89.3434 92.103 89.3435 91.8728 89.3436C91.1327 89.3432 90.3926 89.3385 89.6524 89.3337C89.1399 89.3326 88.6274 89.3318 88.1148 89.3312C86.7646 89.3288 85.4143 89.3229 84.0641 89.3163C82.6867 89.3101 81.3094 89.3073 79.9321 89.3043C77.2286 89.2978 74.5252 89.2875 71.8218 89.2749C71.1342 87.6817 71.1342 87.6817 71.498 86.7594C72.4212 86.0225 73.1187 86.1115 74.2905 86.114Z" fill="#1D0900"/>
<path d="M73.5879 107.016C73.9019 107.016 73.9019 107.016 74.2221 107.016C74.4416 107.015 74.6611 107.014 74.8872 107.013C75.6163 107.01 76.3454 107.01 77.0745 107.009C77.5792 107.008 78.084 107.007 78.5888 107.006C79.6483 107.004 80.7078 107.004 81.7673 107.004C83.1274 107.004 84.4874 107 85.8475 106.995C86.8904 106.991 87.9333 106.991 88.9763 106.991C89.4778 106.991 89.9794 106.989 90.4809 106.987C91.1814 106.984 91.8818 106.985 92.5823 106.987C92.791 106.985 92.9997 106.983 93.2146 106.982C94.6515 106.991 94.6515 106.991 95.3229 107.663C95.3982 108.567 95.3982 108.567 95.3229 109.471C94.4503 110.345 93.8138 110.155 92.5919 110.162C92.2633 110.165 92.2633 110.165 91.9281 110.168C91.2021 110.174 90.4762 110.175 89.7501 110.176C89.2465 110.178 88.7429 110.18 88.2393 110.182C87.1828 110.185 86.1264 110.186 85.0699 110.186C83.7149 110.186 82.36 110.194 81.0051 110.205C79.9647 110.211 78.9244 110.213 77.884 110.212C77.3844 110.213 76.8848 110.216 76.3852 110.22C75.6868 110.226 74.9889 110.224 74.2905 110.221C73.8929 110.222 73.4953 110.222 73.0856 110.223C72.1231 110.074 72.1231 110.074 71.5216 109.513C71.2192 108.869 71.2192 108.869 71.4452 108.058C72.0493 106.94 72.338 107.024 73.5879 107.016Z" fill="#1D0900"/>
</svg>
