<svg width="140" height="140" viewBox="0 0 140 140" fill="none" xmlns="http://www.w3.org/2000/svg">
<path fill-rule="evenodd" clip-rule="evenodd" d="M54.1348 0.423288C53.6293 0.643422 52.925 1.19242 52.57 1.64341L51.9248 2.46347V14.0692V25.6746L52.4332 26.5352C53.089 27.6445 54.4922 28.2987 56.217 28.2987H57.5878V31.7439C57.5878 33.6388 57.7267 35.4484 57.8963 35.7653L58.2048 36.3414H60.5788C61.8846 36.3414 62.9528 36.4138 62.9528 36.502C62.9528 36.5905 57.0346 47.7762 49.8011 61.3595L36.6494 86.0562L27.4974 86.1462L18.3453 86.2364L16.8884 87.1372C16.0869 87.6326 15.0613 88.5709 14.6089 89.2224C14.0745 89.9921 11.3726 97.4859 6.89312 110.624L0 130.84L0.113559 132.851L0.227416 134.862L1.12456 136.316C2.19965 138.058 4.47202 139.535 6.50445 139.813C8.32259 140.062 131.89 140.062 133.708 139.813C135.746 139.534 138.012 138.058 139.095 136.304L140 134.838L139.999 132.431L139.999 130.025L133.21 110.216C128.853 97.4999 126.129 89.9826 125.602 89.2224C125.15 88.5709 124.125 87.6326 123.324 87.1372L121.868 86.2364L114.291 86.0875L106.714 85.9386L94.8184 61.381C88.2755 47.8742 82.9225 36.72 82.9225 36.594C82.9225 36.4677 84.0962 36.3259 85.5304 36.2786L88.1384 36.1925L88.2216 32.2456L88.3047 28.2987H90.1139C92.2531 28.2987 93.6349 27.7214 94.3362 26.5352L94.8447 25.6746V22.9958V20.3169L97.4041 20.2121L99.9632 20.1069L100.704 19.247L101.444 18.387L101.348 13.9694L101.253 9.55184L100.722 9.02072L100.191 8.4896L97.5924 8.34066L94.9937 8.19172L94.8447 5.16823L94.6956 2.14444L94.0995 1.47808C93.7717 1.11139 93.0718 0.628826 92.5443 0.405713L91.5851 0L73.3197 0.0116172L55.0543 0.0232344L54.1348 0.423288ZM54.3688 2.7405L54.0111 3.09796V14.1493V25.2007L54.3688 25.5582L54.7265 25.9156H73.3847H92.043L92.4006 25.5582L92.7583 25.2007V14.1493V3.09796L92.4006 2.7405L92.043 2.38304H73.3847H54.7265L54.3688 2.7405ZM58.3276 6.03208C58.2364 6.40056 58.2003 8.64598 58.2474 11.0216L58.3329 15.3409H59.2271H60.1213L60.2044 11.3939L60.2876 7.44701H63.2231H66.1584L66.5175 7.01449C66.7151 6.77649 66.7896 6.30732 66.6829 5.97191L66.4892 5.36185H62.4914H58.4933L58.3276 6.03208ZM72.0163 7.01509C67.6555 8.62454 66.2549 14.6087 69.4513 17.9747C71.4521 20.0813 74.723 20.6613 77.373 19.3795C81.3443 17.4579 82.3103 11.9623 79.2528 8.68411C77.6129 6.92572 74.3179 6.16583 72.0163 7.01509ZM73.4214 8.96174C69.304 9.83214 68.5404 15.6033 72.3061 17.3894C75.3537 18.8347 78.8645 16.7308 78.8645 13.4591C78.8645 10.4237 76.3468 8.34334 73.4214 8.96174ZM94.8447 14.1493V17.8728H96.9311H99.0174V14.1493V10.4258H96.9311H94.8447V14.1493ZM59.9722 31.2679V34.2369H73.0867H86.2011V31.2679V28.2987H73.0867H59.9722V31.2679ZM64.7906 37.771C64.4079 38.5413 56.0588 54.2631 46.2367 72.7085L28.3784 106.245V107.183C28.3784 107.797 28.6768 108.455 29.2422 109.087L30.1056 110.053H31.3286H32.5512L33.271 109.315C33.6668 108.91 41.5802 94.5166 50.8562 77.331L67.7217 46.0845V41.213V36.3414L66.604 36.356L65.4863 36.3709L64.7906 37.771ZM70.1061 72.5292V108.717L70.9338 109.643L71.7618 110.569L72.8351 110.599C74.1143 110.636 75.3888 109.875 75.7826 108.84C75.9578 108.38 76.0672 94.2953 76.0672 72.2167V36.3414H73.0867H70.1061V72.5292ZM78.2195 41.6097L78.3232 46.9162L92.8566 76.5553C100.85 92.8568 107.719 106.527 108.122 106.932L108.853 107.67H110.076H111.299L112.162 106.704C112.698 106.105 113.026 105.407 113.026 104.866C113.026 104.324 106.857 91.2572 96.6807 70.2426L80.3357 36.4904L79.2257 36.3968L78.1154 36.3033L78.2195 41.6097ZM58.1288 68.4548L48.6849 85.9386L58.0996 86.0172C63.2777 86.0607 67.5622 86.0482 67.6203 85.9901C67.6787 85.9317 67.6919 78.0286 67.6495 68.4273L67.5726 50.9709L58.1288 68.4548ZM78.1536 68.8998V86.0875H86.6333H95.1129L91.7455 79.1618C81.7013 58.504 78.6305 52.2506 78.404 51.9951C78.2663 51.8396 78.1536 59.4465 78.1536 68.8998ZM18.8982 88.5748C18.356 88.7711 17.4729 89.3612 16.9361 89.8858L15.9599 90.8399L11.141 104.985C8.49069 112.764 6.32234 119.195 6.32234 119.275C6.32234 119.355 7.13246 118.861 8.12289 118.178L9.92344 116.937L10.4328 117.256C10.713 117.431 10.983 117.847 11.0328 118.179L11.1234 118.783L9.28501 120.01C7.2478 121.37 6.78671 121.482 6.3596 120.718C6.19984 120.433 6.01028 120.266 5.93845 120.346C5.54382 120.789 2.14957 131.669 2.14957 132.492C2.14957 134.46 3.64611 136.596 5.52206 137.304C6.10178 137.523 20.7551 137.621 52.9411 137.621H99.5211L101.377 136.422C106.966 132.812 109.717 127.608 109.741 120.598C109.75 118.329 110.697 115.413 112.117 113.288C113.897 110.624 116.521 108.939 120.658 107.805L122.969 107.171L126.34 107.13C128.195 107.107 129.713 107.041 129.714 106.983C129.716 106.925 128.501 103.306 127.014 98.9404L124.312 91.0025L123.268 89.9266C122.695 89.3347 121.716 88.6981 121.093 88.5116C119.992 88.1819 107.959 88.0064 107.959 88.3201C107.959 88.4014 109.583 91.8348 111.569 95.95L115.179 103.432L115.056 105.131C114.972 106.289 114.71 107.142 114.233 107.813C113.413 108.962 111.527 109.905 110.045 109.905C108.85 109.905 106.818 109.063 106.194 108.309C105.961 108.027 103.979 104.164 101.789 99.7242L97.8088 91.6516L96.9522 92.4717C96.0288 93.3558 95.2491 93.3918 94.7341 92.5741L94.4104 92.0606L95.5597 90.8843L96.709 89.7079L96.5153 88.9358L96.3215 88.164L87.3119 88.2427L78.3026 88.3216L78.2183 91.4913L78.1342 94.6611L79.6206 95.7516C82.3046 97.7206 83.4983 99.6339 83.4932 101.959C83.4918 102.65 83.4634 105.897 83.4301 109.173L83.3696 115.131L82.757 116.173C81.3911 118.498 77.139 120.473 71.5496 121.379C67.9989 121.955 60.4193 121.965 56.6936 121.4C47.5559 120.013 41.1936 116.417 41.1411 112.61C41.1167 110.848 41.8734 109.974 44.5688 108.651L46.8468 107.533L47.0414 106.758C47.1487 106.332 47.0691 104.623 46.8647 102.961L46.4933 99.9389L46.8405 98.656C47.9129 94.695 52.7337 92.8083 62.7292 92.4374L67.7217 92.2521V90.2084V88.1649L57.5666 88.2433L47.4113 88.3216L41.3769 99.4748L35.3422 110.628L34.1932 111.39L33.0442 112.152H31.3601H29.6761L28.4777 111.359C27.0139 110.391 26.292 108.961 26.292 107.028V105.569L25.1755 105.166C23.5899 104.593 20.4737 101.396 20.0645 99.922C19.6531 98.4415 19.6481 96.6885 20.0508 95.2393C20.7002 92.9018 23.3672 90.8738 25.8098 90.8601L26.9668 90.8536L27.9707 89.7898C28.5227 89.2048 28.9745 88.6016 28.9745 88.4494C28.9745 88.0359 20.0806 88.1467 18.8982 88.5748ZM30.6469 89.8208C29.5912 91.8402 28.5856 92.5899 26.472 92.9337C25.5782 93.079 24.4542 93.4011 23.9743 93.6489C21.629 94.8613 21.1828 98.4391 23.0772 100.846C23.9875 102.002 25.9773 103.365 26.7567 103.365H27.4297L30.477 97.6304C32.153 94.4767 33.9875 91.0585 34.5535 90.0344L35.583 88.1727L33.5455 88.1733L31.508 88.1741L30.6469 89.8208ZM59.3964 94.7594C55.9917 95.0617 52.2386 95.973 50.8389 96.8374C48.8715 98.0528 48.7472 98.5723 49.0995 104.109L49.3078 107.386L48.6044 108.41C48.1734 109.038 47.1925 109.787 46.0718 110.346C42.9306 111.913 42.6579 112.465 44.1723 114.188C46.1091 116.393 51.3778 118.401 57.6578 119.328L61.0154 119.824L65.7843 119.648C73.0214 119.38 78.0174 118.018 80.2641 115.702L81.2498 114.686L81.2903 107.908L81.3309 101.13L80.9431 100.343C80.5014 99.4459 78.8421 97.7048 78.4287 97.7048C78.2704 97.7048 78.1536 100.068 78.1536 103.27V108.836L77.562 110.047C76.4076 112.41 73.686 113.434 71.1418 112.463C68.6498 111.512 67.7422 109.473 67.7288 104.798L67.7217 102.211L66.753 102.117L65.7843 102.024L65.6839 101.313C65.5715 100.52 66.0433 100.099 67.051 100.092L67.7217 100.088V97.258V94.4281L64.9647 94.4693C63.4482 94.4916 60.9424 94.6224 59.3964 94.7594ZM90.5539 97.6119C89.4678 99.2627 87.9393 103.011 88.0463 103.762L88.1384 104.407L88.9581 104.501L89.7774 104.596L90.0877 103.757C90.2582 103.295 90.9422 101.763 91.6078 100.353C92.9046 97.6036 92.9854 96.7168 91.952 96.5693L91.3011 96.4761L90.5539 97.6119ZM52.8392 100.51C52.6371 100.754 52.5587 101.228 52.6654 101.563L52.8592 102.173H55.978H59.0969L59.284 101.686C59.3869 101.418 59.3347 100.982 59.1684 100.718L58.8659 100.237L56.0364 100.152L53.207 100.067L52.8392 100.51ZM59.7886 106.475C59.698 106.711 59.6706 107.147 59.7275 107.443L59.8313 107.982H62.9245H66.0174L66.3306 107.485L66.6439 106.989L66.2523 106.517L65.8603 106.045H62.9069H59.9535L59.7886 106.475ZM86.21 109.695C86.058 110.063 85.6413 111.805 85.284 113.565L84.6339 116.765L85.0071 117.214C85.4601 117.759 85.6425 117.77 86.2968 117.29C86.8696 116.87 88.3998 110.259 88.103 109.486C87.8276 108.769 86.5331 108.911 86.21 109.695ZM121.13 109.925C115.948 111.282 112.94 114.317 112.027 119.109L111.836 120.109L112.357 119.892C114.075 119.175 114.477 119.073 114.92 119.243C115.19 119.347 115.404 119.737 115.397 120.111L115.384 120.791L113.665 121.862L111.946 122.934L111.453 125.437C111.149 126.984 110.487 128.897 109.719 130.446L108.478 132.952L106.177 135.286L103.875 137.621H118.892H133.909L134.868 137.211C136.725 136.417 138.063 134.432 138.063 132.472C138.063 131.955 137.294 129.214 136.354 126.38L134.644 121.227L134.193 121.42C133.944 121.526 133.065 121.677 132.239 121.755L130.737 121.897L130.319 121.393L129.901 120.889L130.214 120.393C130.395 120.105 131.125 119.811 131.951 119.692C132.734 119.58 133.483 119.379 133.616 119.245C133.748 119.112 133.109 116.825 132.195 114.163L130.535 109.322L126.922 109.339L123.309 109.355L121.13 109.925ZM19.0952 114.398C16.103 114.667 15.264 115.019 15.264 116.003C15.264 116.93 15.8437 117.111 17.6919 116.761C18.5325 116.602 20.1139 116.471 21.206 116.471C22.3535 116.471 23.3434 116.32 23.5499 116.114C23.9484 115.716 24.0295 114.791 23.684 114.588C23.1165 114.254 21.4588 114.185 19.0952 114.398ZM55.2236 114.511C55.0215 114.754 54.9432 115.228 55.0499 115.563L55.2436 116.173H58.3624H61.4813L61.6685 115.686C61.7713 115.418 61.7191 114.983 61.5528 114.718L61.2503 114.237L58.4209 114.153L55.5914 114.068L55.2236 114.511ZM68.3664 114.35C68.147 114.489 68.0129 114.922 68.0683 115.313L68.1687 116.024L71.1791 116.109L74.1895 116.193L74.5528 115.756L74.9164 115.318L74.5871 114.703L74.258 114.088L71.5114 114.093C70.0009 114.095 68.5854 114.211 68.3664 114.35ZM28.4705 115.469C28.19 116.2 28.7647 116.883 29.8997 117.168C30.4564 117.307 32.1017 117.77 33.5559 118.196L36.2 118.97L36.611 118.409C36.8369 118.1 37.022 117.741 37.022 117.613C37.022 117.146 35.6268 116.491 33.0394 115.744C29.9515 114.853 28.7355 114.78 28.4705 115.469ZM119.102 118.39C118.788 119.206 119.129 119.895 119.884 119.974C120.293 120.017 121.803 120.277 123.24 120.553L125.854 121.056L126.324 120.585L126.795 120.115L126.486 119.538C125.874 118.395 119.481 117.402 119.102 118.39ZM41.0669 119.918C40.2094 120.775 40.3298 120.921 43.9768 123.428C46.9547 125.475 48.0873 125.812 48.2965 124.715C48.3538 124.416 48.1544 123.9 47.8536 123.568C47.2298 122.879 42.1828 119.45 41.7927 119.45C41.6511 119.45 41.3247 119.661 41.0669 119.918ZM79.6722 124.133L76.869 126.982L77.1691 127.461C77.3342 127.724 77.75 127.982 78.0934 128.033L78.7172 128.126L81.1234 125.828C82.4471 124.565 83.6092 123.214 83.7064 122.827C83.8906 122.094 83.3916 121.22 82.8116 121.261C82.6265 121.274 81.214 122.566 79.6722 124.133ZM51.9993 127.537C51.3179 128.219 51.5921 128.952 52.748 129.542C54.4341 130.401 58.0259 131.422 58.9806 131.313L59.8232 131.216V130.504C59.8232 129.598 59.9782 129.669 52.8189 127.312C52.573 127.231 52.2043 127.332 51.9993 127.537ZM69.659 129.3C68.3476 129.589 66.7882 129.837 66.1932 129.851C64.9208 129.88 64.3086 130.473 64.6007 131.393L64.8079 132.045L67.2335 131.858C70.2623 131.626 72.4941 131.046 72.912 130.384L73.2327 129.876L72.9147 129.373C72.4885 128.697 72.4017 128.695 69.659 129.3Z" fill="#1D0900"/>
</svg>
