<svg width="140" height="140" viewBox="0 0 140 140" fill="none" xmlns="http://www.w3.org/2000/svg">
<path fill-rule="evenodd" clip-rule="evenodd" d="M58.2824 0.321545C57.7332 0.498467 56.6199 1.29075 55.8083 2.08247C54.2084 3.64304 53.7101 4.84547 53.7075 7.15146L53.7058 8.4948L46.8924 8.58055L40.079 8.66658L38.6807 9.53146C37.815 10.0671 36.9525 10.9297 36.4167 11.7954L35.5516 13.1942L35.473 28.4369L35.3941 43.6796L35.8352 44.5322C36.6389 46.0859 38.8502 46.7098 40.4976 45.8475C40.9221 45.6251 42.3982 44.2758 43.7776 42.8487C45.157 41.4216 46.6305 40.028 47.0522 39.7516L47.819 39.2491L64.7227 39.1062L81.6261 38.9633L83.0252 38.0984C83.8718 37.5748 84.7526 36.7022 85.2558 35.8888L86.0871 34.544L86.2309 32.5378L86.3745 30.5317L88.6945 30.5334C89.9707 30.5342 91.4754 30.6629 92.0383 30.8192L93.0618 31.1033L96.3435 34.3902L99.625 37.6771H100.994C102.576 37.6771 103.77 36.9763 104.278 35.7496L104.61 34.9507L104.531 19.7852L104.452 4.61968L103.587 3.22088C103.051 2.35428 102.189 1.49283 101.322 0.956919L99.9226 0.0920333L79.6017 0.0460165L59.2807 0L58.2824 0.321545ZM58.6349 3.37751C57.3118 4.18381 56.567 5.54344 56.5659 7.1546L56.5647 8.50109L69.0725 8.58369L81.5803 8.66658L82.4792 9.15847C83.6288 9.78756 85.0333 11.1918 85.6626 12.3411L86.1546 13.2397L86.2438 20.4254L86.3327 27.6115L89.3886 27.7272L92.4443 27.8427L93.8603 28.4823C94.8489 28.9288 96.1002 29.9823 98.0057 31.9719C99.5069 33.5396 100.964 34.8215 101.243 34.8206L101.751 34.8189L101.672 19.9793L101.593 5.13958L100.878 4.37502C100.485 3.95458 99.816 3.42982 99.3914 3.20888L98.6192 2.80731L79.0931 2.80845L59.5666 2.80931L58.6349 3.37751ZM40.8309 11.6162C40.0721 11.9526 39.2571 12.6426 38.7536 13.3749L38.2676 14.0814V28.7376V43.3935H38.755C39.0232 43.3935 40.4707 42.1213 41.9713 40.5667C43.4723 39.0119 45.2791 37.4365 45.9867 37.0655L47.2732 36.3909L64.1895 36.248L81.106 36.1051L81.8705 35.3906C82.2911 34.9976 82.816 34.3288 83.0369 33.9043L83.4386 33.1323L83.4375 23.7578L83.4366 14.3829L82.8683 13.4515C82.5558 12.939 81.8811 12.2645 81.3685 11.9521L80.4368 11.3839L60.8531 11.403C50.0821 11.4136 41.0722 11.5093 40.8309 11.6162ZM45.6937 19.3919L45.0998 19.9855L45.296 20.6141C45.4038 20.9599 45.6353 21.3372 45.8109 21.4527C45.9861 21.5681 52.7615 21.6644 60.8674 21.667L75.6052 21.6713L75.9482 21.3283C76.3574 20.9193 76.3879 19.9804 76.0117 19.3848L75.7407 18.956L61.0141 18.8771L46.2875 18.7983L45.6937 19.3919ZM45.5742 26.5939C45.0012 27.4114 45.0124 27.5569 45.7008 28.2451L46.2726 28.8168H56.2977C62.6614 28.8168 66.5247 28.7087 66.8757 28.5209C67.5024 28.1857 67.6291 26.8449 67.0856 26.3016L66.7425 25.9586H56.3809H46.019L45.5742 26.5939ZM9.82127 42.6349C5.79447 43.968 3.24603 46.442 1.94893 50.2768L1.32854 52.1109L1.44433 54.5767L1.56012 57.0424L2.49413 58.9388C4.20177 62.4067 7.29855 64.761 11.0761 65.4635L12.8663 65.7962L14.8899 65.4492C19.9427 64.5832 23.647 60.8738 24.6056 55.7202L24.923 54.0153L24.6171 52.1695C23.9853 48.3587 21.5091 45.0441 18.0055 43.3197L16.1689 42.4157L13.567 42.336C11.9603 42.2868 10.5274 42.4011 9.82127 42.6349ZM123.545 42.6486C119.373 44.0083 116.192 47.6576 115.382 52.0175L115.064 53.7255L115.376 55.5456C116.274 60.7884 119.994 64.5717 125.113 65.4492L127.137 65.7962L128.927 65.4635C132.719 64.7584 135.801 62.4087 137.524 58.9086L138.473 56.9818V53.9599V50.9379L137.405 48.7783C136.116 46.1708 134.456 44.5485 131.806 43.308L129.896 42.4143L127.323 42.3351C125.708 42.2856 124.302 42.4023 123.545 42.6486ZM10.3545 45.4196C7.93953 46.1193 5.22469 48.8872 4.54169 51.3458C4.11028 52.8981 4.18375 55.3978 4.70551 56.929C5.33333 58.7714 7.56758 61.1534 9.45819 61.9965L10.9648 62.6685L13.109 62.6773L15.2532 62.6862L16.8717 61.8916C18.7457 60.9716 20.3538 59.3158 21.2018 57.4334L21.797 56.1124L21.8056 53.9688L21.8145 51.8251L21.1406 50.3189C20.295 48.4285 17.9112 46.1945 16.07 45.5674C14.618 45.0727 11.8028 45.0001 10.3545 45.4196ZM123.816 45.5683C122.068 46.2111 119.673 48.5079 118.863 50.3189L118.189 51.8251L118.198 53.9688L118.206 56.1124L118.802 57.4334C119.65 59.3158 121.258 60.9716 123.132 61.8916L124.75 62.6862L126.894 62.6773L129.039 62.6685L130.545 61.9965C132.512 61.1196 134.686 58.7599 135.339 56.7935L135.827 55.3241L135.694 53.2888C135.483 50.049 133.956 47.6453 131.134 46.1102L129.617 45.2847L127.327 45.2021C125.773 45.1464 124.643 45.2642 123.816 45.5683ZM7.60103 68.2734C4.79385 68.9645 2.14791 71.1824 0.864255 73.92L0.100921 75.548L0.0174407 90.6649C-0.0377365 100.654 0.0383109 106.283 0.241295 107.261C1.25335 112.135 4.95595 115.998 9.83128 117.268L11.5138 117.706H20.5503H29.5865L34.8563 127.208C37.7544 132.434 40.4996 137.136 40.9564 137.657C44.0512 141.188 50.1018 140.491 52.3598 136.343C53.2993 134.617 53.586 132.817 53.168 131.266C52.6826 129.463 40.9232 107.109 39.8949 106.034C39.3932 105.509 38.4677 104.806 37.8388 104.472L36.6952 103.864L31.5491 103.68C28.7188 103.579 26.371 103.478 26.3316 103.456C26.2921 103.434 26.2601 100.2 26.2601 96.2698V89.1244H30.6714H35.0827L34.8249 90.0236C34.3008 91.8508 35.433 94.3689 37.2181 95.3452L38.1246 95.8411L49.7748 95.9246L61.4249 96.008V117.555V139.102L61.874 139.551L62.3235 140H70.0017H77.6799L78.1293 139.551L78.5785 139.102V117.543V95.984L89.6568 95.9823C96.8756 95.9814 101.132 95.8705 101.875 95.6645C104.146 95.0342 105.798 92.2801 105.202 90.1202L104.927 89.1244H109.335H113.743V96.2698C113.743 100.2 113.711 103.434 113.672 103.456C113.633 103.478 111.285 103.579 108.454 103.68L103.308 103.864L102.165 104.472C101.536 104.806 100.613 105.509 100.114 106.034C99.0412 107.162 87.2656 129.591 86.8225 131.35C86.3985 133.034 86.7318 134.797 87.8102 136.576L88.7276 138.089L90.3001 138.973L91.8725 139.857L93.8737 139.849L95.875 139.84L97.0457 139.222C97.6895 138.882 98.5901 138.178 99.0469 137.657C99.5038 137.136 102.249 132.434 105.147 127.208L110.417 117.706H119.453H128.49L130.172 117.268C135.043 116 138.75 112.134 139.76 107.272C139.96 106.309 140.037 100.597 139.984 90.6758L139.902 75.548L139.139 73.92C138.164 71.8401 136.172 69.8508 134.098 68.8845L132.469 68.1259L127.708 68.0216L122.947 67.9173L121.313 68.3923C120.414 68.6532 119.201 69.1686 118.617 69.5373C117.049 70.5271 115.265 72.6927 114.642 74.3639L114.093 75.8338L102.411 75.9767L90.7289 76.1197L89.5853 76.7364C86.5174 78.3916 85.1617 81.9643 86.4405 85.024C86.6764 85.5885 86.8693 86.0987 86.8693 86.1582C86.8693 86.2176 79.2789 86.2662 70.0017 86.2662C60.7245 86.2662 53.134 86.2176 53.134 86.1582C53.134 86.0987 53.327 85.5885 53.5628 85.024C54.8416 81.9643 53.4859 78.3916 50.418 76.7364L49.2745 76.1197L37.5923 75.9767L25.9099 75.8338L25.351 74.3353C24.5585 72.2099 22.4183 69.9726 20.1966 68.9471L18.3981 68.1168L13.5379 68.0624C10.8648 68.0327 8.1934 68.1276 7.60103 68.2734ZM7.80659 71.199C5.36249 72.1742 3.75577 73.8571 3.10851 76.1197L2.78145 77.2629L2.87065 92.2684L2.95985 107.274L3.79437 108.973C4.8556 111.134 6.53722 112.815 8.69543 113.873L10.3931 114.705L20.7801 114.848L31.1672 114.991L31.5514 115.517C31.763 115.806 34.3574 120.418 37.3173 125.765L42.6989 135.488L43.6772 136.243L44.6556 136.999H46.1579H47.66L48.4497 136.41C49.848 135.366 50.418 134.35 50.4169 132.905L50.416 131.568L44.4503 120.136C41.1691 113.848 38.2107 108.397 37.8759 108.023C36.7887 106.809 35.7123 106.56 31.4868 106.547C26.4454 106.531 25.2174 106.296 24.1954 105.152L23.4012 104.264V96.694V89.1244H21.6858H19.9705L19.3987 88.5527C18.75 87.9042 18.7025 87.6044 19.1228 86.819L19.4187 86.2662L33.4889 86.2645C42.204 86.2636 47.9602 86.1516 48.6129 85.9704C49.1924 85.8095 49.9963 85.2858 50.3997 84.8068L51.1328 83.9359V82.5671V81.1986L50.5129 80.4109C50.1722 79.9776 49.4686 79.4457 48.9497 79.2291L48.0062 78.8349H36.0059H24.0053L23.5604 78.1996C23.3157 77.8503 23.1153 77.2675 23.1153 76.9042C23.1153 75.197 21.2907 72.6736 19.2829 71.6037L18.1122 70.9801L13.3949 70.9158C10.2175 70.8723 8.39352 70.9649 7.80659 71.199ZM121.622 71.2462C121.002 71.4737 120.166 71.9035 119.764 72.2014C118.553 73.098 117.208 75.0658 117.032 76.198C116.941 76.7836 116.706 77.5845 116.509 77.9775L116.152 78.692L103.713 78.8349L91.2744 78.9778L90.5053 79.482C90.0822 79.7593 89.5253 80.308 89.2674 80.7013L88.7988 81.4167L88.9366 82.8504C89.0993 84.5447 89.9041 85.5577 91.4225 85.9792C92.0346 86.1493 98.0835 86.2636 106.514 86.2645L120.585 86.2662L120.881 86.819C121.301 87.6044 121.253 87.9042 120.605 88.5527L120.033 89.1244H118.318H116.602V96.694V104.264L115.816 105.141C114.769 106.308 113.574 106.544 108.66 106.552C104.28 106.56 103.224 106.798 102.128 108.023C101.794 108.397 98.8362 113.848 95.5565 120.136L89.5928 131.568L89.589 132.905C89.585 134.351 90.1531 135.364 91.5537 136.41L92.3433 136.999H93.8454H95.3478L96.3261 136.243L97.3044 135.488L102.686 125.765C105.646 120.418 108.24 115.806 108.452 115.517L108.836 114.991L119.223 114.848L129.61 114.705L131.308 113.873C133.466 112.815 135.148 111.134 136.209 108.973L137.044 107.274V91.6967V76.1197L136.49 75.0041C135.783 73.5804 134.436 72.2334 133.013 71.5297L131.897 70.9775L127.323 70.9049L122.749 70.8323L121.622 71.2462ZM38.2124 89.6246C37.976 89.8995 37.6998 90.358 37.5983 90.6429C37.341 91.3663 38.1138 92.7323 38.8994 92.9426C39.2594 93.0392 53.2815 93.1198 70.0597 93.1218L100.565 93.1258L101.3 92.7911C102.452 92.2664 102.714 90.6364 101.809 89.6246L101.361 89.1244H70.0017H38.6421L38.2124 89.6246ZM64.2838 116.563V137.142H70.0017H75.7195V116.563V95.984H70.0017H64.2838V116.563Z" fill="#1D0900"/>
</svg>
