<svg width="1716" height="194" viewBox="0 0 1716 194" fill="none" xmlns="http://www.w3.org/2000/svg">
<path d="M1593.23 190.269V3.73076H1713.68V35.7088H1628.56V80.2115H1706.18V112.19H1628.56V158.291H1715.28V190.269H1593.23Z" fill="#1D0900"/>
<path d="M1480.79 194C1467.94 194 1456.26 191.157 1445.73 185.473C1435.38 179.61 1427.08 171.171 1420.84 160.157C1414.77 148.964 1411.74 135.374 1411.74 119.385V74.6154C1411.74 50.6319 1418.52 32.2445 1432.08 19.4533C1445.64 6.48443 1464.02 0 1487.21 0C1510.23 0 1527.99 6.12913 1540.48 18.3874C1553.15 30.468 1559.48 46.9011 1559.48 67.6868V68.7527H1524.68V66.6209C1524.68 60.0476 1523.26 54.0961 1520.4 48.7665C1517.73 43.4368 1513.62 39.2619 1508.09 36.2418C1502.56 33.044 1495.6 31.4451 1487.21 31.4451C1474.72 31.4451 1464.91 35.2647 1457.77 42.9038C1450.63 50.543 1447.07 60.9359 1447.07 74.0824V119.918C1447.07 132.886 1450.63 143.368 1457.77 151.363C1464.91 159.179 1474.9 163.088 1487.75 163.088C1500.6 163.088 1509.96 159.712 1515.85 152.962C1521.74 146.211 1524.68 137.683 1524.68 127.379V124.714H1480.25V94.8681H1559.48V190.269H1526.83V172.415H1522.01C1520.76 175.435 1518.71 178.633 1515.85 182.008C1513.18 185.384 1509.07 188.226 1503.54 190.536C1498.01 192.845 1490.43 194 1480.79 194Z" fill="#1D0900"/>
<path d="M1232.41 190.269V159.357H1257.03V34.6428H1232.41V3.73076H1309.49C1334.65 3.73076 1353.74 10.1264 1366.77 22.9176C1379.97 35.5311 1386.57 54.3626 1386.57 79.4121V114.588C1386.57 139.637 1379.97 158.558 1366.77 171.349C1353.74 183.962 1334.65 190.269 1309.49 190.269H1232.41ZM1292.36 158.291H1310.02C1324.3 158.291 1334.74 154.56 1341.34 147.099C1347.94 139.637 1351.24 129.156 1351.24 115.654V78.3461C1351.24 64.6667 1347.94 54.185 1341.34 46.9011C1334.74 39.4395 1324.3 35.7088 1310.02 35.7088H1292.36V158.291Z" fill="#1D0900"/>
<path d="M1167.19 190.269V3.73076H1202.52V190.269H1167.19Z" fill="#1D0900"/>
<path d="M998.076 190.269V3.73076H1079.44C1091.22 3.73076 1101.48 5.77379 1110.22 9.85988C1118.96 13.946 1125.75 19.7198 1130.56 27.1813C1135.38 34.6428 1137.79 43.4368 1137.79 53.5632V56.761C1137.79 67.9533 1135.11 77.0137 1129.76 83.9423C1124.41 90.8709 1117.8 95.9341 1109.95 99.1319V103.929C1117.09 104.284 1122.62 106.771 1126.55 111.39C1130.47 115.831 1132.44 121.783 1132.44 129.244V190.269H1097.11V134.308C1097.11 130.044 1095.95 126.58 1093.63 123.915C1091.49 121.25 1087.83 119.918 1082.65 119.918H1033.41V190.269H998.076ZM1033.41 87.9396H1075.69C1084.08 87.9396 1090.59 85.7189 1095.23 81.2775C1100.05 76.6584 1102.46 70.6181 1102.46 63.1566V60.4918C1102.46 53.0302 1100.14 47.0788 1095.5 42.6374C1090.86 38.0183 1084.26 35.7088 1075.69 35.7088H1033.41V87.9396Z" fill="#1D0900"/>
<path d="M879.232 190.269V126.047L815.532 3.73076H854.876L894.489 83.6758H899.306L938.919 3.73076H978.263L914.562 126.047V190.269H879.232Z" fill="#1D0900"/>
<path d="M682.854 190.269V3.73076H803.297V35.7088H718.184V80.2115H795.803V112.19H718.184V158.291H804.903V190.269H682.854Z" fill="#1D0900"/>
<path d="M552.197 190.269L504.555 3.73076H540.955L580.568 167.618H584.315L623.927 3.73076H660.328L612.686 190.269H552.197Z" fill="#1D0900"/>
<path d="M351.427 190.269V3.73076H432.793C444.57 3.73076 454.83 5.77379 463.573 9.85988C472.316 13.946 479.097 19.7198 483.914 27.1813C488.732 34.6428 491.141 43.4368 491.141 53.5632V56.761C491.141 67.9533 488.464 77.0137 483.111 83.9423C477.758 90.8709 471.156 95.9341 463.305 99.1319V103.929C470.442 104.284 475.974 106.771 479.899 111.39C483.825 115.831 485.788 121.783 485.788 129.244V190.269H450.458V134.308C450.458 130.044 449.298 126.58 446.978 123.915C444.837 121.25 441.179 119.918 436.005 119.918H386.757V190.269H351.427ZM386.757 87.9396H429.046C437.432 87.9396 443.945 85.7189 448.584 81.2775C453.402 76.6584 455.811 70.6181 455.811 63.1566V60.4918C455.811 53.0302 453.491 47.0788 448.852 42.6374C444.213 38.0183 437.611 35.7088 429.046 35.7088H386.757V87.9396Z" fill="#1D0900"/>
<path d="M243.865 194C228.52 194 215.315 191.246 204.253 185.739C193.368 180.054 184.982 172.06 179.093 161.755C173.384 151.274 170.529 138.927 170.529 124.714V3.73076H205.858V125.78C205.858 137.15 209.07 146.122 215.494 152.695C222.096 159.268 231.553 162.555 243.865 162.555C256.177 162.555 265.545 159.268 271.968 152.695C278.57 146.122 281.871 137.15 281.871 125.78V3.73076H317.201V124.714C317.201 138.927 314.257 151.274 308.369 161.755C302.659 172.06 294.272 180.054 283.21 185.739C272.325 191.246 259.21 194 243.865 194Z" fill="#1D0900"/>
<path d="M74.3227 194C59.8696 194 47.1115 191.424 36.0486 186.272C24.9857 181.12 16.3317 173.747 10.0865 164.154C3.84131 154.56 0.71875 143.013 0.71875 129.511V122.049H35.5133V129.511C35.5133 140.703 38.9928 149.142 45.9517 154.827C52.9106 160.334 62.3676 163.088 74.3227 163.088C86.4562 163.088 95.4672 160.69 101.356 155.893C107.422 151.096 110.456 144.967 110.456 137.505C110.456 132.353 108.939 128.179 105.906 124.981C103.051 121.783 98.7682 119.207 93.0583 117.253C87.5268 115.121 80.7463 113.167 72.7168 111.39L66.5608 110.058C53.7135 107.215 42.6507 103.662 33.3721 99.3984C24.272 94.957 17.2239 89.1832 12.2277 82.0769C7.40999 74.9707 5.00116 65.7326 5.00116 54.3626C5.00116 42.9927 7.67767 33.3104 13.0307 25.3159C18.5621 17.1438 26.2348 10.9258 36.0486 6.66209C46.0409 2.22069 57.7283 0 71.1109 0C84.4934 0 96.3593 2.30952 106.708 6.92858C117.236 11.37 125.444 18.1209 131.332 27.1813C137.399 36.0641 140.432 47.2564 140.432 60.7582V68.7527H105.638V60.7582C105.638 53.652 104.21 47.967 101.356 43.7033C98.679 39.2619 94.7534 36.0641 89.5788 34.1099C84.4042 31.978 78.2482 30.9121 71.1109 30.9121C60.4048 30.9121 52.4645 32.9551 47.2899 37.0412C42.2938 40.9496 39.7958 46.3681 39.7958 53.2967C39.7958 57.9158 40.9555 61.8242 43.2752 65.022C45.7733 68.2198 49.4311 70.8846 54.2489 73.0165C59.0666 75.1483 65.2225 77.0137 72.7168 78.6126L78.8727 79.9451C92.2553 82.7875 103.854 86.4295 113.667 90.8709C123.66 95.3123 131.422 101.175 136.953 108.459C142.484 115.743 145.25 125.07 145.25 136.44C145.25 147.81 142.306 157.847 136.418 166.552C130.708 175.08 122.5 181.831 111.794 186.805C101.266 191.602 88.7759 194 74.3227 194Z" fill="#1D0900"/>
</svg>
