<svg width="230" height="36" viewBox="0 0 230 36" fill="none" xmlns="http://www.w3.org/2000/svg">
<path d="M69.034 27.364C67.63 27.364 66.3907 27.1127 65.316 26.61C64.2413 26.1073 63.4007 25.388 62.794 24.452C62.1873 23.516 61.884 22.3893 61.884 21.072V20.344H65.264V21.072C65.264 22.164 65.602 22.9873 66.278 23.542C66.954 24.0793 67.8727 24.348 69.034 24.348C70.2127 24.348 71.088 24.114 71.66 23.646C72.2493 23.178 72.544 22.58 72.544 21.852C72.544 21.3493 72.3967 20.942 72.102 20.63C71.8247 20.318 71.4087 20.0667 70.854 19.876C70.3167 19.668 69.658 19.4773 68.878 19.304L68.28 19.174C67.032 18.8967 65.9573 18.55 65.056 18.134C64.172 17.7007 63.4873 17.1373 63.002 16.444C62.534 15.7507 62.3 14.8493 62.3 13.74C62.3 12.6307 62.56 11.686 63.08 10.906C63.6173 10.1087 64.3627 9.502 65.316 9.086C66.2867 8.65267 67.422 8.436 68.722 8.436C70.022 8.436 71.1747 8.66133 72.18 9.112C73.2027 9.54533 74 10.204 74.572 11.088C75.1613 11.9547 75.456 13.0467 75.456 14.364V15.144H72.076V14.364C72.076 13.6707 71.9373 13.116 71.66 12.7C71.4 12.2667 71.0187 11.9547 70.516 11.764C70.0133 11.556 69.4153 11.452 68.722 11.452C67.682 11.452 66.9107 11.6513 66.408 12.05C65.9227 12.4313 65.68 12.96 65.68 13.636C65.68 14.0867 65.7927 14.468 66.018 14.78C66.2607 15.092 66.616 15.352 67.084 15.56C67.552 15.768 68.15 15.95 68.878 16.106L69.476 16.236C70.776 16.5133 71.9027 16.8687 72.856 17.302C73.8267 17.7353 74.5807 18.3073 75.118 19.018C75.6553 19.7287 75.924 20.6387 75.924 21.748C75.924 22.8573 75.638 23.8367 75.066 24.686C74.5113 25.518 73.714 26.1767 72.674 26.662C71.6513 27.13 70.438 27.364 69.034 27.364ZM85.5036 27.364C84.0129 27.364 82.7302 27.0953 81.6556 26.558C80.5982 26.0033 79.7836 25.2233 79.2116 24.218C78.6569 23.1953 78.3796 21.9907 78.3796 20.604V8.8H81.8116V20.708C81.8116 21.8173 82.1236 22.6927 82.7476 23.334C83.3889 23.9753 84.3076 24.296 85.5036 24.296C86.6996 24.296 87.6096 23.9753 88.2336 23.334C88.8749 22.6927 89.1956 21.8173 89.1956 20.708V8.8H92.6276V20.604C92.6276 21.9907 92.3416 23.1953 91.7696 24.218C91.2149 25.2233 90.4002 26.0033 89.3256 26.558C88.2682 27.0953 86.9942 27.364 85.5036 27.364ZM95.9523 27V8.8H103.856C105 8.8 105.997 8.99933 106.846 9.398C107.696 9.79667 108.354 10.36 108.822 11.088C109.29 11.816 109.524 12.674 109.524 13.662V13.974C109.524 15.066 109.264 15.95 108.744 16.626C108.224 17.302 107.583 17.796 106.82 18.108V18.576C107.514 18.6107 108.051 18.8533 108.432 19.304C108.814 19.7373 109.004 20.318 109.004 21.046V27H105.572V21.54C105.572 21.124 105.46 20.786 105.234 20.526C105.026 20.266 104.671 20.136 104.168 20.136H99.3843V27H95.9523ZM99.3843 17.016H103.492C104.307 17.016 104.94 16.7993 105.39 16.366C105.858 15.9153 106.092 15.326 106.092 14.598V14.338C106.092 13.61 105.867 13.0293 105.416 12.596C104.966 12.1453 104.324 11.92 103.492 11.92H99.3843V17.016ZM115.455 27L110.827 8.8H114.363L118.211 24.79H118.575L122.423 8.8H125.959L121.331 27H115.455ZM128.148 27V8.8H139.848V11.92H131.58V16.262H139.12V19.382H131.58V23.88H140.004V27H128.148ZM147.224 27V20.734L141.036 8.8H144.858L148.706 16.6H149.174L153.022 8.8H156.844L150.656 20.734V27H147.224ZM158.769 27V8.8H166.673C167.817 8.8 168.813 8.99933 169.663 9.398C170.512 9.79667 171.171 10.36 171.639 11.088C172.107 11.816 172.341 12.674 172.341 13.662V13.974C172.341 15.066 172.081 15.95 171.561 16.626C171.041 17.302 170.399 17.796 169.637 18.108V18.576C170.33 18.6107 170.867 18.8533 171.249 19.304C171.63 19.7373 171.821 20.318 171.821 21.046V27H168.389V21.54C168.389 21.124 168.276 20.786 168.051 20.526C167.843 20.266 167.487 20.136 166.985 20.136H162.201V27H158.769ZM162.201 17.016H166.309C167.123 17.016 167.756 16.7993 168.207 16.366C168.675 15.9153 168.909 15.326 168.909 14.598V14.338C168.909 13.61 168.683 13.0293 168.233 12.596C167.782 12.1453 167.141 11.92 166.309 11.92H162.201V17.016ZM175.196 27V8.8H178.628V27H175.196ZM181.532 27V23.984H183.924V11.816H181.532V8.8H189.02C191.464 8.8 193.319 9.424 194.584 10.672C195.867 11.9027 196.508 13.74 196.508 16.184V19.616C196.508 22.06 195.867 23.906 194.584 25.154C193.319 26.3847 191.464 27 189.02 27H181.532ZM187.356 23.88H189.072C190.459 23.88 191.473 23.516 192.114 22.788C192.755 22.06 193.076 21.0373 193.076 19.72V16.08C193.076 14.7453 192.755 13.7227 192.114 13.012C191.473 12.284 190.459 11.92 189.072 11.92H187.356V23.88ZM205.66 27.364C204.412 27.364 203.277 27.0867 202.254 26.532C201.249 25.96 200.443 25.1367 199.836 24.062C199.247 22.97 198.952 21.644 198.952 20.084V15.716C198.952 13.376 199.611 11.582 200.928 10.334C202.246 9.06867 204.031 8.436 206.284 8.436C208.52 8.436 210.245 9.034 211.458 10.23C212.689 11.4087 213.304 13.012 213.304 15.04V15.144H209.924V14.936C209.924 14.2947 209.786 13.714 209.508 13.194C209.248 12.674 208.85 12.2667 208.312 11.972C207.775 11.66 207.099 11.504 206.284 11.504C205.071 11.504 204.118 11.8767 203.424 12.622C202.731 13.3673 202.384 14.3813 202.384 15.664V20.136C202.384 21.4013 202.731 22.424 203.424 23.204C204.118 23.9667 205.088 24.348 206.336 24.348C207.584 24.348 208.494 24.0187 209.066 23.36C209.638 22.7013 209.924 21.8693 209.924 20.864V20.604H205.608V17.692H213.304V27H210.132V25.258H209.664C209.543 25.5527 209.344 25.8647 209.066 26.194C208.806 26.5233 208.408 26.8007 207.87 27.026C207.333 27.2513 206.596 27.364 205.66 27.364ZM216.583 27V8.8H228.283V11.92H220.015V16.262H227.555V19.382H220.015V23.88H228.439V27H216.583Z" fill="#1D0900"/>
<path d="M42.2196 17.0518C42.2201 16.6314 42.1992 16.2164 42.1673 15.8045L43.2635 15.3793L42.8319 12.9054L41.661 12.8801C41.4396 12.0693 41.1549 11.2853 40.8127 10.5325L41.6953 9.75896L40.4471 7.58255L39.3353 7.96197C38.8538 7.28208 38.3215 6.64137 37.7406 6.04789L38.3074 5.01614L36.3934 3.3997L35.4792 4.13694C34.7992 3.66427 34.081 3.24358 33.3284 2.88264L33.5089 1.72308L31.1597 0.861599L30.5542 1.86415C29.7605 1.65664 28.9416 1.51199 28.104 1.43214L27.878 0.276903L25.3772 0.274222L25.1488 1.42901C24.3109 1.50722 23.4918 1.64993 22.6977 1.85595L22.0944 0.852065L19.7435 1.70863L19.9216 2.86848C19.1683 3.22794 18.4492 3.64713 17.7681 4.11832L16.8554 3.37914L14.938 4.99156L15.5027 6.0245C14.9206 6.61664 14.387 7.25631 13.904 7.93515L12.793 7.5535L11.5403 9.72737L12.4212 10.5029C12.0774 11.2549 11.7911 12.0383 11.568 12.8487L10.3971 12.8716L9.96031 15.3446L11.0557 15.7722C11.0229 16.1841 11.0011 16.5991 11.0007 17.0195C11.0002 17.4397 11.0211 17.8549 11.053 18.2668L9.95675 18.6919L10.3884 21.1658L11.5593 21.1911C11.7807 22.002 12.0654 22.7861 12.4075 23.5387L11.525 24.3123L12.7732 26.4889L13.8849 26.1094C14.3663 26.7893 14.8987 27.43 15.4795 28.0235L14.9128 29.0553L16.8268 30.6717L17.7409 29.9345C18.421 30.407 19.1393 30.8278 19.8919 31.1888L19.7114 32.3483L22.0606 33.2098L22.6661 32.2071C23.4598 32.4146 24.2785 32.5593 25.1163 32.6391L25.3423 33.7945L27.8431 33.7972L28.0715 32.6424C28.9094 32.5642 29.7285 32.4215 30.5226 32.2156L31.126 33.2195L33.477 32.3629L33.2988 31.2029C34.0522 30.8435 34.7713 30.4243 35.4524 29.9531L36.365 30.6923L38.2824 29.0798L37.7178 28.0469C38.2998 27.4548 38.8335 26.8151 39.3164 26.1362L40.4274 26.5179L41.68 24.344L40.7991 23.5685C41.1429 22.8165 41.4292 22.0331 41.6523 21.2227L42.8232 21.1999L43.26 18.7269L42.1646 18.2995C42.1974 17.887 42.2192 17.472 42.2196 17.0518Z" fill="#FC5A11"/>
<path d="M26.61 30.5254C34.0284 30.5254 40.0422 24.4857 40.0422 17.0353C40.0422 9.58485 34.0284 3.5451 26.61 3.5451C19.1917 3.5451 13.1779 9.58485 13.1779 17.0353C13.1779 24.4857 19.1917 30.5254 26.61 30.5254Z" fill="white"/>
<path d="M34.9641 25.426C39.5782 20.792 39.5782 13.2787 34.9641 8.64471C30.35 4.01069 22.8691 4.01068 18.255 8.64471C13.6409 13.2787 13.6409 20.792 18.255 25.426C22.8691 30.06 30.35 30.06 34.9641 25.426Z" fill="#1D365C"/>
<path d="M36.6337 19.4849C37.9826 13.9261 34.5893 8.32161 29.0545 6.96683C23.5197 5.61205 17.9393 9.02002 16.5903 14.5788C15.2414 20.1375 18.6347 25.742 24.1695 27.0968C29.7043 28.4516 35.2847 25.0436 36.6337 19.4849Z" fill="white"/>
<path d="M45.0202 28.5869L35.9195 28.5965L35.9138 23.043L44.3882 23.034C44.9873 23.0334 45.4734 23.5206 45.474 24.1222L45.4781 28.126C45.4784 28.3803 45.2734 28.5866 45.0202 28.5869Z" fill="#1D365C"/>
<path d="M36.3453 23.0441L35.9128 23.0445L35.9183 28.598L36.3509 28.5976L36.3453 23.0441Z" fill="#D87D21"/>
<path d="M45.0202 28.5869L35.9195 28.5965L35.9182 27.3694L45.4773 27.3593L45.478 28.1259C45.4785 28.3803 45.2734 28.5866 45.0202 28.5869Z" fill="#525563"/>
<path d="M45.4795 27.3566L35.9204 27.3672L35.9209 27.7879L45.4799 27.7773L45.4795 27.3566Z" fill="#4B474F"/>
<path d="M46 26.8653L45.4771 27.1165L45.4752 25.3004L45.9987 25.5504L46 26.8653Z" fill="#F05879"/>
<path d="M44.1006 22.0852L42.8805 22.0864L42.8814 23.0382L44.1015 23.0369L44.1006 22.0852Z" fill="#504943"/>
<path d="M44.1012 22.7296L42.881 22.7309L42.8814 23.0382L44.1015 23.0369L44.1012 22.7296Z" fill="#463F43"/>
<path d="M44.4766 21.6519L42.5036 21.6539L42.5043 22.4059L44.4773 22.4039L44.4766 21.6519Z" fill="#63594F"/>
<path d="M36.6573 22.0906L40.266 22.0868C40.4362 22.0867 40.5853 22.2018 40.6289 22.3672L40.8054 23.038L36.1197 23.0429L36.2948 22.3717C36.3381 22.2062 36.4869 22.0907 36.6573 22.0906Z" fill="#63594F"/>
<path d="M42.109 19.9467L41.1333 19.9478L41.1367 23.0359L42.1123 23.0348L42.109 19.9467Z" fill="#FEA177"/>
<path d="M25.4713 21.0965L24.0516 15.1131L11.7041 2.14791L12.6721 0.988944L29.1443 14.4545L29.8186 19.8906L25.4713 21.0965Z" fill="#1D365C"/>
<path d="M26.0326 20.4071L24.7162 14.8593L16.9811 6.73742C16.7969 6.54406 16.7871 6.2424 16.9584 6.03743C17.1419 5.8177 17.4672 5.78656 17.6886 5.96771L28.04 14.4298L28.4801 17.9777L26.0326 20.4071Z" fill="white"/>
<path d="M28.086 17.8402L27.6873 14.6257L17.4524 6.25886C17.4186 6.23115 17.3828 6.22534 17.3589 6.22549C17.3149 6.22549 17.2733 6.24485 17.245 6.27867C17.1964 6.33691 17.1992 6.42242 17.2515 6.47739L25.0566 14.673L26.2425 19.6702L28.086 17.8402Z" fill="#FC5A11"/>
<path d="M24.7637 14.2666C24.7641 14.7074 25.1202 15.0643 25.5593 15.0639C25.9982 15.0634 26.3536 14.7058 26.3531 14.265C26.3527 13.8242 25.9965 13.4673 25.5575 13.4677C25.1185 13.4681 24.7632 13.8258 24.7637 14.2666Z" fill="#1D365C"/>
<path d="M26.9173 18.0571L25.7423 18.2895L26.599 22.6596L27.7741 22.4272L26.9173 18.0571Z" fill="#FEA177"/>
<path d="M25.8634 14.2084L25.265 14.3267L26.0307 18.2324L26.6292 18.1141L25.8634 14.2084Z" fill="#1D365C"/>
<path d="M26.0283 15.0502C25.8912 15.1332 25.731 15.182 25.5593 15.1822C25.5155 15.1822 25.4727 15.1782 25.4305 15.1722L25.2643 14.324L25.8628 14.2056L26.0283 15.0502Z" fill="#1D365C"/>
<path d="M41.3628 19.9493L41.3612 18.4312L42.24 17.8368L42.5015 18.2229L41.8562 18.6652L41.8575 19.9487L41.3628 19.9493Z" fill="#FF8C58"/>
<path d="M23.8274 29.7381L35.9207 29.7253L35.908 17.5892C35.9075 17.2277 35.6155 16.935 35.2555 16.9353L28.8082 16.9421C28.5553 16.9424 28.3187 17.0675 28.1755 17.2768L23.9566 23.4393C23.8684 23.5683 23.8212 23.7212 23.8213 23.8777L23.8274 29.7381Z" fill="#FC5A11"/>
<path d="M32.0591 24.774L35.3153 24.7706C35.4091 24.7704 35.4849 24.6942 35.4847 24.6L35.4771 17.4048C35.477 17.3106 35.4011 17.2345 35.3073 17.2346L32.0511 17.2381C31.9574 17.2382 31.8816 17.3145 31.8817 17.4086L31.8893 24.6039C31.8894 24.6979 31.9654 24.774 32.0591 24.774Z" fill="#1D365C"/>
<path d="M32.2436 24.386L35.1299 24.3831C35.2237 24.3829 35.2995 24.3066 35.2993 24.2125L35.2926 17.7925C35.2925 17.6983 35.2165 17.6222 35.1228 17.6223L32.2365 17.6253C32.1428 17.6255 32.067 17.7017 32.0671 17.7959L32.0738 24.2159C32.074 24.3101 32.1499 24.3862 32.2436 24.386Z" fill="#63594F"/>
<path d="M32.2436 24.386L35.1299 24.3831C35.2237 24.3829 35.2995 24.3066 35.2993 24.2125L35.2926 17.7925C35.2925 17.6983 35.2165 17.6222 35.1228 17.6223L32.2365 17.6253C32.1428 17.6255 32.067 17.7017 32.0671 17.7959L32.0738 24.2159C32.074 24.3101 32.1499 24.3862 32.2436 24.386Z" fill="#1D365C"/>
<path d="M34.993 18.3919L32.3712 18.3948L32.377 23.6127L34.9988 23.6098L34.993 18.3919Z" fill="white"/>
<path d="M25.0105 24.5986L31.4869 24.5917C31.5891 24.5916 31.6717 24.5085 31.6715 24.4058L31.6643 17.406C31.6641 17.3034 31.5812 17.2204 31.4792 17.2205L29.074 17.2231C29.0132 17.2232 28.9563 17.2533 28.9219 17.3037L24.8567 23.2455C24.8355 23.2765 24.8242 23.3133 24.8242 23.3508L24.8252 24.4131C24.8255 24.5156 24.9083 24.5987 25.0105 24.5986Z" fill="#1D365C"/>
<path d="M25.3718 24.3934L31.3117 24.3871C31.4054 24.387 31.4812 24.3107 31.4811 24.2166L31.4744 17.7965C31.4743 17.7024 31.3983 17.6263 31.3046 17.6264L29.0987 17.6288C29.0429 17.6288 28.9907 17.6565 28.9591 17.7027L25.2308 23.1523C25.2113 23.1808 25.201 23.2145 25.201 23.249L25.202 24.2233C25.2021 24.3173 25.2782 24.3934 25.3718 24.3934Z" fill="#1D365C"/>
<path d="M25.9761 23.6214L31.0964 23.6159L31.091 18.398L28.9147 18.4004L25.975 22.6971L25.9761 23.6214Z" fill="white"/>
<path d="M26.7236 28.7334L31.3087 28.7286C31.4066 28.7284 31.4858 28.6487 31.4856 28.5504L31.4819 24.95C31.4818 24.8517 31.4024 24.7722 31.3045 24.7723L25.3798 24.7786C25.2819 24.7787 25.2027 24.8584 25.2028 24.9567L25.2052 27.2117C25.206 28.053 25.8859 28.7342 26.7236 28.7334Z" fill="#1D365C"/>
<path d="M26.8979 28.4744L31.0404 28.47C31.1653 28.4699 31.2664 28.3681 31.2663 28.2427L31.263 25.1333C31.2629 25.0079 31.1616 24.9063 31.0367 24.9065L25.648 24.9121C25.5231 24.9123 25.4219 25.014 25.4221 25.1394L25.424 26.9972C25.4249 27.8138 26.0848 28.4753 26.8979 28.4744Z" fill="#1D365C"/>
<path d="M26.817 27.9173L30.8724 27.913C30.9434 27.9128 31.001 27.855 31.001 27.7835L30.9987 25.5912C30.9987 25.5198 30.941 25.4619 30.8698 25.462L25.8487 25.4672C25.7776 25.4674 25.7201 25.5252 25.7201 25.5967L25.7214 26.8191C25.722 27.4264 26.2125 27.918 26.817 27.9173Z" fill="white"/>
<path d="M35.918 28.9861L23.8247 28.9982L23.8254 29.7398L35.9187 29.7277L35.918 28.9861Z" fill="#525563"/>
<path d="M35.5381 27.4952L32.3812 27.4987L32.382 28.2977L35.539 28.2943L35.5381 27.4952Z" fill="#FEA177"/>
<path d="M37.9874 29.7256L25.6237 29.738L25.6245 30.5025L37.9882 30.4901L37.9874 29.7256Z" fill="#44424D"/>
<path d="M39.6123 30.4887L24.4541 30.5039L24.4549 31.2701L39.6131 31.2548L39.6123 30.4887Z" fill="#525563"/>
<path d="M39.6123 30.4887L24.4541 30.5039L24.4544 30.7338L39.6126 30.7186L39.6123 30.4887Z" fill="#6C6F80"/>
<path d="M23.1744 36L40.4542 35.9818C41.7549 35.9805 42.8081 34.9204 42.8068 33.6141C42.8055 32.3078 41.75 31.25 40.4493 31.2514L23.1695 31.2695C21.8688 31.2709 20.8155 32.3309 20.8169 33.6372C20.8182 34.9435 21.8737 36.0013 23.1744 36Z" fill="#63594F"/>
<path d="M23.4713 35.6467L40.1565 35.6291C41.2632 35.6279 42.1592 34.726 42.158 33.6146C42.1568 32.5032 41.2589 31.6033 40.1522 31.6044L23.467 31.622C22.3604 31.6232 21.4643 32.5251 21.4655 33.6365C21.4667 34.7478 22.3648 35.6479 23.4713 35.6467Z" fill="#4D453D"/>
<path d="M39.6146 32.7194L23.9889 32.7351L23.99 33.8814L39.6157 33.8657L39.6146 32.7194Z" fill="#413B3D"/>
<path d="M38.3263 33.6188C38.3273 34.5925 39.1142 35.3812 40.0838 35.3801C41.0534 35.3791 41.8387 34.5888 41.8376 33.615C41.8366 32.6412 41.0497 31.8526 40.0801 31.8536C39.1105 31.8547 38.3253 32.645 38.3263 33.6188Z" fill="#63594F"/>
<path d="M38.659 33.6183C38.6599 34.4077 39.2977 35.0469 40.0835 35.046C40.8695 35.0453 41.506 34.4047 41.5051 33.6154C41.5044 32.826 40.8666 32.1869 40.0806 32.1877C39.2946 32.1885 38.6581 32.8291 38.659 33.6183Z" fill="#57514F"/>
<path d="M38.9002 33.6182C38.9009 34.2736 39.4306 34.8046 40.0832 34.8038C40.7359 34.8031 41.2645 34.2712 41.2638 33.6156C41.263 32.9602 40.7335 32.4293 40.0807 32.43C39.4281 32.4308 38.8996 32.9626 38.9002 33.6182Z" fill="#6E6257"/>
<path d="M21.8378 33.6361C21.8388 34.6099 22.6257 35.3985 23.5953 35.3974C24.5649 35.3964 25.3501 34.6061 25.3491 33.6323C25.3481 32.6585 24.5612 31.8699 23.5916 31.871C22.6218 31.872 21.8367 32.6623 21.8378 33.6361Z" fill="#63594F"/>
<path d="M22.1703 33.6358C22.1712 34.4252 22.8089 35.0644 23.5949 35.0635C24.3808 35.0626 25.0173 34.4222 25.0164 33.6328C25.0155 32.8434 24.3777 32.2044 23.5919 32.2051C22.8059 32.2059 22.1695 32.8464 22.1703 33.6358Z" fill="#57514F"/>
<path d="M22.4117 33.6355C22.4124 34.2909 22.9419 34.8219 23.5947 34.8211C24.2473 34.8204 24.776 34.2884 24.7752 33.633C24.7745 32.9775 24.245 32.4466 23.5922 32.4473C22.9394 32.4481 22.4109 32.98 22.4117 33.6355Z" fill="#6E6257"/>
<path d="M39.1695 31.608L24.2163 31.6231L24.2171 32.5045L39.1703 32.4895L39.1695 31.608Z" fill="#746E65"/>
<path d="M39.1695 31.608L24.2163 31.6231L24.2166 31.92L39.1698 31.9049L39.1695 31.608Z" fill="#6A6462"/>
<path d="M37.4336 34.9817C37.4339 35.322 37.7089 35.5975 38.0477 35.5971C38.3864 35.5968 38.6608 35.3206 38.6604 34.9804C38.6601 34.6401 38.3851 34.3647 38.0463 34.365C37.7076 34.3654 37.4333 34.6415 37.4336 34.9817Z" fill="#413B3D"/>
<path d="M37.6788 34.9816C37.6789 35.1858 37.844 35.3512 38.0473 35.351C38.2507 35.3509 38.4155 35.1851 38.4152 34.9809C38.415 34.7766 38.25 34.6113 38.0466 34.6114C37.8432 34.6116 37.6786 34.7772 37.6788 34.9816Z" fill="#474143"/>
<path d="M34.8942 34.9843C34.8947 35.3246 35.1695 35.6002 35.5083 35.5997C35.8471 35.5994 36.1215 35.3232 36.121 34.983C36.1207 34.6427 35.8457 34.3672 35.507 34.3676C35.1683 34.3681 34.8939 34.6441 34.8942 34.9843Z" fill="#413B3D"/>
<path d="M35.1394 34.9842C35.1395 35.1885 35.3046 35.3538 35.508 35.3537C35.7113 35.3535 35.876 35.1877 35.8758 34.9835C35.8757 34.7792 35.7106 34.6139 35.5072 34.614C35.3039 34.6142 35.1392 34.7798 35.1394 34.9842Z" fill="#474143"/>
<path d="M32.355 34.9871C32.3553 35.3273 32.6303 35.6029 32.9691 35.6025C33.3079 35.6022 33.5823 35.326 33.5818 34.9858C33.5815 34.6455 33.3065 34.3699 32.9678 34.3704C32.629 34.3708 32.3546 34.6469 32.355 34.9871Z" fill="#413B3D"/>
<path d="M32.6002 34.9868C32.6004 35.1911 32.7655 35.3564 32.9688 35.3563C33.1722 35.3561 33.3368 35.1903 33.3367 34.9861C33.3365 34.7819 33.1714 34.6165 32.9681 34.6167C32.7647 34.6168 32.5999 34.7826 32.6002 34.9868Z" fill="#474143"/>
<path d="M29.8157 34.9897C29.816 35.3299 30.091 35.6055 30.4298 35.6051C30.7686 35.6046 31.043 35.3286 31.0425 34.9884C31.0422 34.6481 30.7672 34.3727 30.4285 34.373C30.0897 34.3734 29.8154 34.6495 29.8157 34.9897Z" fill="#413B3D"/>
<path d="M30.0609 34.9895C30.061 35.1937 30.2261 35.359 30.4295 35.3589C30.6328 35.3587 30.7975 35.193 30.7973 34.9887C30.7972 34.7845 30.6321 34.6191 30.4287 34.6193C30.2254 34.6196 30.0606 34.7852 30.0609 34.9895Z" fill="#474143"/>
<path d="M27.2764 34.9925C27.2767 35.3327 27.5517 35.6083 27.8904 35.6079C28.2292 35.6076 28.5035 35.3314 28.5032 34.9911C28.5029 34.6509 28.2279 34.3753 27.8891 34.3758C27.5503 34.3762 27.2761 34.6522 27.2764 34.9925Z" fill="#413B3D"/>
<path d="M27.5215 34.9921C27.5217 35.1963 27.6868 35.3618 27.8901 35.3615C28.0935 35.3614 28.2583 35.1956 28.258 34.9913C28.2578 34.7871 28.0927 34.6217 27.8894 34.6219C27.686 34.6222 27.5214 34.7878 27.5215 34.9921Z" fill="#474143"/>
<path d="M24.737 34.9951C24.7373 35.3353 25.0123 35.6109 25.3511 35.6105C25.6899 35.61 25.9643 35.334 25.9638 34.9938C25.9635 34.6535 25.6885 34.3779 25.3497 34.3784C25.0111 34.3788 24.7367 34.6549 24.737 34.9951Z" fill="#413B3D"/>
<path d="M24.9822 34.9948C24.9823 35.1991 25.1474 35.3644 25.3508 35.3643C25.5541 35.3641 25.7188 35.1983 25.7186 34.9941C25.7185 34.7899 25.5534 34.6244 25.35 34.6247C25.1467 34.625 24.982 34.7906 24.9822 34.9948Z" fill="#474143"/>
<path d="M39.1721 34.1008L24.2189 34.1158L24.2198 34.9972L39.173 34.9822L39.1721 34.1008Z" fill="#746E65"/>
<path d="M41.9386 23.3213L37.0339 23.3267L37.037 26.2152L41.9417 26.2098L41.9386 23.3213Z" fill="#E07019"/>
<path d="M41.4511 23.731L37.3575 23.7355L37.3577 23.9338L41.4513 23.9293L41.4511 23.731Z" fill="#FEA177"/>
<path d="M41.4481 24.3407L37.3544 24.3448L37.3546 24.543L41.4483 24.5389L41.4481 24.3407Z" fill="#FEA177"/>
<path d="M41.4487 24.9455L37.355 24.9497L37.3552 25.1479L41.4489 25.1438L41.4487 24.9455Z" fill="#FEA177"/>
<path d="M41.4532 25.5451L37.3595 25.5496L37.3597 25.7479L41.4534 25.7433L41.4532 25.5451Z" fill="#FEA177"/>
<path d="M31.438 16.4791L32.9793 16.4774C33.1721 16.4773 33.3286 16.634 33.3288 16.8277L33.3289 16.9375L31.0893 16.9398L31.0892 16.8301C31.089 16.6364 31.2452 16.4792 31.438 16.4791Z" fill="#FC5A11"/>
<path d="M31.3789 16.4791L32.9057 16.4775L32.8102 15.443C32.7929 15.255 32.6356 15.1113 32.4477 15.1114L31.8342 15.112C31.6462 15.1122 31.4894 15.2564 31.4723 15.4444L31.3789 16.4791Z" fill="#FC5A11"/>
<path d="M19.1557 4.14379L18.7086 4.76491L26.1295 10.1532L26.5766 9.5321L19.1557 4.14379Z" fill="#1D365C"/>
<path d="M13.3124 0.170952L13.0845 0.487489L18.7998 4.63738L19.0277 4.32085L13.3124 0.170952Z" fill="#1D365C"/>
<path d="M14.3048 0.077909L13.3574 5.03777L3.4995 16.7448L2.0284 16.2991L11.6881 0L14.3048 0.077909Z" fill="#1D365C"/>
<path d="M1.06573 15.5211L2.74434 15.0908L2.27103 15.8894L1.30676 15.9333L1.06573 15.5211Z" fill="#1D365C"/>
<path d="M7.78433 4.4663L2.71955 12.128L3.35532 12.5519L8.4201 4.89022L7.78433 4.4663Z" fill="#E07019"/>
<path d="M2.90136 12.2499L0.673262 15.6204L0.997263 15.8365L3.22537 12.4659L2.90136 12.2499Z" fill="#1D365C"/>
<path d="M10.6638 1.72449L9.96426 1.3698L7.32049 4.20077L8.2192 5.83985L10.6638 1.72449Z" fill="#1D365C"/>
<path d="M2.11293 19.5278L1.40808 18.5257L2.16751 17.0142C2.16751 17.0142 1.94651 16.3711 2.02824 16.2989C2.11011 16.2266 2.88141 15.5935 2.88141 15.5935C2.88141 15.5935 4.53005 18.2496 8.09136 17.3999L8.57298 17.5605C8.57298 17.5605 9.97392 16.4876 10.0083 16.5223C10.0426 16.5571 10.132 16.5849 10.132 16.5849L7.9681 19.2447L7.76905 19.1264C7.76905 19.1264 5.72986 21.941 3.89299 21.4202C2.18798 20.9371 2.11293 19.5278 2.11293 19.5278Z" fill="#1D365C"/>
<path d="M2.0284 16.2991C2.11028 16.2268 2.88159 15.5938 2.88159 15.5938C2.88159 15.5938 4.45044 18.1185 7.83153 17.4553L8.32294 18.809L7.96814 19.245L7.76909 19.1267C7.76909 19.1267 7.63663 19.3094 7.40954 19.5724C6.40775 19.6798 3.90029 19.6798 1.95055 17.4467L2.1677 17.0147C2.1677 17.0147 1.94653 16.3713 2.0284 16.2991Z" fill="#1D365C"/>
<path d="M2.0284 16.2991C2.11028 16.2268 2.88159 15.5938 2.88159 15.5938C2.88159 15.5938 4.53023 18.2499 8.09155 17.4002L8.57316 17.5608C8.57316 17.5608 9.9741 16.4879 10.0085 16.5226C10.0428 16.5573 10.1322 16.5852 10.1322 16.5852L7.96814 19.245L7.76909 19.1267C7.76909 19.1267 4.39467 19.4589 2.16784 17.0145C2.16755 17.0145 1.94653 16.3713 2.0284 16.2991Z" fill="#1D365C"/>
<path d="M0.670582 16.3076L1.57819 18.1872L1.92483 17.4974L1.15042 16.1074L0.670582 16.3076Z" fill="#1D365C"/>
<path d="M1.37454 16.5096C1.24594 16.6486 1.07981 16.7428 0.90034 16.7834L0.670582 16.3076L1.15042 16.1074L1.37454 16.5096Z" fill="#D98622"/>
<path d="M1.62062 15.9191L1.30676 15.9333L1.06573 15.5211L1.49558 15.411C1.58443 15.5641 1.62833 15.7406 1.62062 15.9191Z" fill="#D98622"/>
<path d="M0.0750892 15.5623C-0.0987491 15.9082 0.0394909 16.3302 0.384053 16.5048C0.728466 16.6794 1.14867 16.5406 1.32251 16.1945C1.49635 15.8486 1.35811 15.4266 1.01355 15.252C0.668986 15.0774 0.248927 15.2164 0.0750892 15.5623Z" fill="#E07019"/>
<path d="M24.972 14.2664C24.9722 14.5917 25.2352 14.8551 25.559 14.8548C25.883 14.8545 26.1452 14.5904 26.1449 14.265C26.1446 13.9397 25.8816 13.6762 25.5577 13.6766C25.2339 13.677 24.9715 13.9412 24.972 14.2664Z" fill="#1D365C"/>
<path d="M25.1588 14.2662C25.159 14.4878 25.3381 14.6673 25.5588 14.667C25.7796 14.6667 25.9583 14.4869 25.958 14.2653C25.9577 14.0436 25.7787 13.8641 25.558 13.8644C25.3372 13.8647 25.1585 14.0445 25.1588 14.2662Z" fill="#1D365C"/>
<path d="M25.2758 14.266C25.276 14.4227 25.4027 14.5497 25.5587 14.5495C25.7147 14.5494 25.8411 14.4222 25.841 14.2654C25.8408 14.1087 25.7142 13.9818 25.5581 13.982C25.4021 13.9823 25.2757 14.1093 25.2758 14.266Z" fill="#1D365C"/>
<path d="M24.6056 10.7441L26.5004 9.16104L28.1516 10.7404L28.0313 13.5445L24.6056 10.7441Z" fill="#FC5A11"/>
<path d="M28.0313 13.5445L24.6056 10.7441L24.9822 10.4574L28.0592 12.8945L28.0313 13.5445Z" fill="#E07019"/>
<path d="M26.0237 10.6729C26.024 10.9382 26.2383 11.153 26.5024 11.1527C26.7665 11.1524 26.9804 10.9372 26.9801 10.672C26.9798 10.4067 26.7655 10.1919 26.5015 10.1922C26.2374 10.1925 26.0236 10.4077 26.0237 10.6729Z" fill="#1D365C"/>
<path d="M26.1753 10.6728C26.1754 10.854 26.3218 11.0007 26.5022 11.0005C26.6826 11.0004 26.8287 10.8534 26.8285 10.6722C26.8284 10.4911 26.682 10.3443 26.5016 10.3445C26.3212 10.3446 26.1751 10.4917 26.1753 10.6728Z" fill="#1D365C"/>
<path d="M11.8814 1.34924L13.0387 1.20832L12.5922 4.61922L6.50608 12.0457L5.69281 11.6335L11.8814 1.34924Z" fill="white"/>
<path d="M6.33385 11.704L12.1616 4.5928L12.5312 1.76898L12.0337 1.82961L6.14844 11.6102L6.33385 11.704Z" fill="#E07019"/>
<path d="M30.6208 23.6166L28.7643 23.6185L27.7609 20.0868L28.9147 18.4004L29.1388 18.4002L30.6208 23.6166Z" fill="white"/>
<path d="M27.3545 20.6808L28.1893 23.619L27.7048 23.6195L27.0122 21.1813L27.3545 20.6808Z" fill="white"/>
<path d="M33.768 23.6131L34.6136 23.6122L33.5984 18.3954L32.753 18.3963L33.768 23.6131Z" fill="white"/>
<path d="M35.4071 26.0837L31.8928 26.0876L31.893 26.2438L35.4073 26.24L35.4071 26.0837Z" fill="#FEA177"/>
<path d="M24.4515 24.3932L23.8234 24.3939L23.8247 25.5653L24.4527 25.5646L24.4515 24.3932Z" fill="white"/>
<path d="M24.4524 25.3147L23.8244 25.3154L23.8247 25.5653L24.4527 25.5646L24.4524 25.3147Z" fill="white"/>
<path d="M24.4498 25.7247L23.8218 25.7253L23.8222 26.1776L24.4502 26.177L24.4498 25.7247Z" fill="white"/>
<path d="M24.4502 26.177L23.8222 26.1776L23.8223 26.3011L24.4503 26.3005L24.4502 26.177Z" fill="white"/>
<path d="M32.879 16.1897L32.9056 16.4775L31.3789 16.4791L31.4048 16.1913L32.879 16.1897Z" fill="#E94800"/>
<path d="M33.3289 16.8276L33.3289 16.9375L31.0893 16.9398L31.0893 16.83C31.0893 16.8106 31.092 16.792 31.095 16.7734L33.3231 16.771C33.3261 16.7895 33.3287 16.8083 33.3289 16.8276Z" fill="#1D365C"/>
<path d="M32.0649 15.6897C32.065 15.854 32.1791 15.987 32.3196 15.9869C32.46 15.9867 32.5738 15.8534 32.5736 15.6891C32.5735 15.5248 32.4594 15.3918 32.319 15.3919C32.1785 15.3921 32.0647 15.5254 32.0649 15.6897Z" fill="#FEA177"/>
<path d="M31.7279 15.6901C31.728 15.8544 31.8421 15.9875 31.9826 15.9873C32.123 15.9872 32.2368 15.8538 32.2366 15.6895C32.2365 15.5252 32.1224 15.3922 31.982 15.3923C31.8414 15.3925 31.7277 15.5258 31.7279 15.6901Z" fill="#FF8C58"/>
<path d="M10.3692 1.57506L10.6638 1.72449L8.21937 5.83984L7.9994 5.43882L10.3692 1.57506Z" fill="#1D365C"/>
<path d="M40.8056 23.0379L36.1198 23.0428L36.2001 22.7355L40.7246 22.7307L40.8056 23.0379Z" fill="#4D453D"/>
<path d="M42.1101 22.7303L41.1344 22.7313L41.1347 23.0386L42.1104 23.0376L42.1101 22.7303Z" fill="#4D453D"/>
<path d="M45.7045 27.0073L45.4771 27.1165L45.4752 25.3004L45.7029 25.4091L45.7045 27.0073Z" fill="#B94678"/>
<path d="M45.4725 24.4359L43.9016 24.4374L43.9017 24.6019L45.4727 24.6003L45.4725 24.4359Z" fill="#E07019"/>
<path d="M45.4729 24.8593L43.902 24.8609L43.9022 25.0254L45.4731 25.0238L45.4729 24.8593Z" fill="#E07019"/>
<path d="M45.4734 25.2827L43.9024 25.2843L43.9026 25.4487L45.4735 25.4471L45.4734 25.2827Z" fill="#E07019"/>
<path d="M45.4742 25.7056L43.9032 25.7071L43.9034 25.8716L45.4743 25.87L45.4742 25.7056Z" fill="#E07019"/>
<path d="M39.1727 34.6812L24.2194 34.6962L24.2197 34.9931L39.173 34.9781L39.1727 34.6812Z" fill="#6A6462"/>
</svg>
